<svg width="180" height="120" viewBox="0 0 180 120" fill="none" xmlns="http://www.w3.org/2000/svg">
<path d="M81.3388 33.6369C83.8111 36.1092 84.7632 39.7256 83.8111 43.094C86.8594 41.2618 90.3479 40.3017 93.9003 40.3017H93.9723C99.1969 40.3177 104.198 42.414 107.87 46.1264C110.814 49.2228 115.711 49.3428 118.799 46.3984C121.896 43.4541 122.016 38.5575 119.071 35.4691C118.999 35.3891 118.919 35.3171 118.839 35.2371C112.278 28.6043 103.341 24.8599 94.0123 24.8439H93.8763C86.8915 24.8279 80.0666 26.9081 74.2739 30.8126H74.49C77.0583 30.8126 79.5146 31.8287 81.3308 33.6449L81.3388 33.6369Z" fill="#1770E6" style="fill:#1770E6;fill:color(display-p3 0.0900 0.4393 0.9000);fill-opacity:1;"/>
<path d="M113.223 71.7214C111.182 71.7214 109.222 72.5295 107.774 73.9617C104.094 77.6261 99.1089 79.6824 93.9083 79.6824H93.8363C90.2759 79.6824 86.7794 78.6983 83.7391 76.842C83.9711 77.6821 84.0831 78.5542 84.0831 79.4264C84.0831 84.763 79.7546 89.0915 74.418 89.0915H74.1619C79.9466 93.028 86.7794 95.1482 93.7803 95.1562H93.9163C103.197 95.1722 112.102 91.4998 118.671 84.947C121.704 81.9386 121.72 77.0421 118.719 74.0097C117.271 72.5455 115.287 71.7214 113.231 71.7214H113.223Z" fill="#E44F20" style="fill:#E44F20;fill:color(display-p3 0.8941 0.3098 0.1255);fill-opacity:1;"/>
<path d="M67.5771 72.5855C69.3854 70.7693 71.8497 69.7452 74.418 69.7532C75.3061 69.7532 76.1862 69.8732 77.0343 70.1132C73.2738 63.8645 73.2898 56.0476 77.0743 49.8148C71.9217 51.231 66.601 48.1986 65.1849 43.046C64.9528 42.2059 64.8408 41.3418 64.8408 40.4777V40.2137C56.7518 52.0951 56.7198 67.705 64.7448 79.6264V79.4263C64.7448 76.858 65.7529 74.4017 67.5771 72.5855Z" fill="#FFDA00" style="fill:#FFDA00;fill:color(display-p3 1.0000 0.8549 0.0000);fill-opacity:1;"/>
<path d="M74.506 32.5248C72.3057 32.5248 70.7695 33.4369 68.9053 35.3011C67.1291 37.0773 66.569 38.6295 66.561 40.4777C66.561 44.8702 70.1214 48.4227 74.514 48.4227C78.9065 48.4227 82.4589 44.8622 82.4589 40.4697C82.4589 36.0852 78.8985 32.5248 74.514 32.5248H74.506Z" fill="#1770E6" style="fill:#1770E6;fill:color(display-p3 0.0900 0.4393 0.9000);fill-opacity:1;"/>
<path d="M66.449 79.4343C66.449 81.6266 67.3611 83.1708 69.2253 85.035C71.0016 86.8112 72.5537 87.3793 74.402 87.3793C78.7785 87.3633 82.3149 83.8109 82.2989 79.4343C82.2829 75.0578 78.7305 71.5214 74.354 71.5374C69.9854 71.5534 66.457 75.0898 66.457 79.4583V79.4343H66.449Z" fill="#E44F20" style="fill:#E44F20;fill:color(display-p3 0.8941 0.3098 0.1255);fill-opacity:1;"/>
</svg>
