<?xml version="1.0" encoding="utf-8"?>
<!-- Generator: Adobe Illustrator 19.0.0, SVG Export Plug-In . SVG Version: 6.00 Build 0)  -->
<svg version="1.1" id="Layer_1" xmlns="http://www.w3.org/2000/svg" xmlns:xlink="http://www.w3.org/1999/xlink" x="0px" y="0px"
	 width="1400px" height="1400px" viewBox="0 0 1400 1400" enable-background="new 0 0 1400 1400" xml:space="preserve">
<radialGradient id="XMLID_2_" cx="700" cy="700" r="1107.0798" gradientTransform="matrix(1 0 0 0.7184 0 197.0877)" gradientUnits="userSpaceOnUse">
	<stop  offset="0" style="stop-color:#FFD8AE"/>
	<stop  offset="0.1453" style="stop-color:#F0B6A0"/>
	<stop  offset="0.3925" style="stop-color:#D27485"/>
	<stop  offset="0.768" style="stop-color:#0F4565"/>
	<stop  offset="1" style="stop-color:#00364F"/>
</radialGradient>
<rect id="XMLID_1417_" y="0" fill="url(#XMLID_2_)" width="1400" height="1400"/>
<radialGradient id="XMLID_3_" cx="700" cy="700" r="183.6122" gradientUnits="userSpaceOnUse">
	<stop  offset="0.629" style="stop-color:#FFFFFF;stop-opacity:0.5"/>
	<stop  offset="0.6317" style="stop-color:#FFFFFF;stop-opacity:0.4964"/>
	<stop  offset="1" style="stop-color:#FFFFFF;stop-opacity:0"/>
</radialGradient>
<circle id="XMLID_1667_" fill="url(#XMLID_3_)" cx="700" cy="700" r="183.6"/>
<g id="XMLID_1419_">
	<defs>
		<rect id="XMLID_1418_" y="0" width="1400" height="1400"/>
	</defs>
	<clipPath id="XMLID_4_">
		<use xlink:href="#XMLID_1418_"  overflow="visible"/>
	</clipPath>
	<g id="XMLID_833_" clip-path="url(#XMLID_4_)">
		<linearGradient id="XMLID_5_" gradientUnits="userSpaceOnUse" x1="700" y1="1448.2249" x2="700" y2="1000.1133">
			<stop  offset="0" style="stop-color:#FFFFFF"/>
			<stop  offset="1" style="stop-color:#FF7F8C;stop-opacity:0"/>
		</linearGradient>
		<path id="XMLID_296_" opacity="0.5" fill="url(#XMLID_5_)" d="M3569.6,1748.6l-2115.1-754l-0.5,1.4v-1.5H-54v1.5l-0.5-1.4
			l-2115.1,754l0.5,1.4v1.5h5738.2v-1.5L3569.6,1748.6z M1508.7,1017.1h-77.1l-22-8.8h74.5L1508.7,1017.1z M759.7,1141.7l3.4,23.2
			H636.9l3.4-23.2H759.7z M640.8,1138.7l3-20.2h112.5l3,20.2H640.8z M762.7,1141.7H882l10.3,23.2H766.1L762.7,1141.7z M633.9,1164.9
			H507.8l10.3-23.2h119.2L633.9,1164.9z M633.4,1167.9l-3.9,26.7H494.6l11.8-26.7H633.4z M636.5,1167.9h127.1l3.9,26.7h-135
			L636.5,1167.9z M766.6,1167.9h127l11.8,26.7H770.5L766.6,1167.9z M896.8,1167.9h126.6l19.7,26.7H908.7L896.8,1167.9z
			 M895.5,1164.9l-10.3-23.2h118.9l17.1,23.2H895.5z M883.9,1138.7l-9-20.2h112l14.9,20.2H883.9z M880.6,1138.7H762.3l-3-20.2h112.4
			L880.6,1138.7z M758.8,1115.5l-2.6-17.8h106.2l7.9,17.8H758.8z M755.8,1115.5H644.2l2.6-17.8h106.4L755.8,1115.5z M641.2,1115.5
			H529.7l7.9-17.8h106.2L641.2,1115.5z M640.7,1118.5l-3,20.2H519.4l9-20.2H640.7z M516.1,1138.7h-118l14.9-20.2h112L516.1,1138.7z
			 M514.8,1141.7l-10.3,23.2H378.8l17.1-23.2H514.8z M503.2,1167.9l-11.8,26.7H356.8l19.7-26.7H503.2z M490,1197.6l-13.8,31H331.7
			l22.9-31H490z M493.3,1197.6H629l-4.6,31H479.5L493.3,1197.6z M632.1,1197.6h135.9l4.6,31h-145L632.1,1197.6z M771,1197.6h135.8
			l13.8,31H775.6L771,1197.6z M910,1197.6h135.4l22.9,31H923.8L910,1197.6z M1049.1,1197.6H1184l32.1,31H1072L1049.1,1197.6z
			 M1046.9,1194.6l-19.7-26.7h126.1l27.6,26.7H1046.9z M1025,1164.9l-17.1-23.2h118.4l24,23.2H1025z M1005.6,1138.7l-14.9-20.2
			h111.5l20.9,20.2H1005.6z M988.5,1115.5l-13.1-17.8h105.4l18.4,17.8H988.5z M984.8,1115.5H873.6l-7.9-17.8h105.9L984.8,1115.5z
			 M864.4,1094.7l-6.9-15.7h100.4l11.6,15.7H864.4z M861.1,1094.7H755.8l-2.3-15.7h100.7L861.1,1094.7z M752.7,1094.7H647.3
			l2.3-15.7h100.9L752.7,1094.7z M644.2,1094.7H538.9l6.9-15.7h100.7L644.2,1094.7z M535.6,1094.7h-105l11.6-15.7h100.4
			L535.6,1094.7z M534.3,1097.7l-7.9,17.8H415.2l13.1-17.8H534.3z M411.5,1115.5H300.9l18.4-17.8h105.4L411.5,1115.5z M409.3,1118.5
			l-14.9,20.2H276.9l20.9-20.2H409.3z M392.1,1141.7l-17.1,23.2H249.8l24-23.2H392.1z M372.8,1167.9l-19.7,26.7h-134l27.6-26.7
			H372.8z M350.9,1197.6l-22.9,31H183.9l32.1-31H350.9z M325.7,1231.7l-26.9,36.4H143.2l37.6-36.4H325.7z M329.5,1231.7h145.5
			l-16.1,36.4H302.6L329.5,1231.7z M478.2,1231.7H563h61l-5.4,36.4H462.1L478.2,1231.7z M627,1231.7H773l5.4,36.4H621.7L627,1231.7z
			 M776,1231.7h145.8l16.1,36.4H781.4L776,1231.7z M925.1,1231.7h145.5l26.9,36.4H941.2L925.1,1231.7z M1074.3,1231.7h144.9
			l37.6,36.4h-155.7L1074.3,1231.7z M1223.5,1231.7h144.3l48.3,36.4h-155L1223.5,1231.7z M1220.4,1228.7l-32.1-31h134.3l41.3,31
			H1220.4z M1185.2,1194.6l-27.6-26.7h125.5l35.5,26.7H1185.2z M1154.5,1164.9l-24-23.2h117.7l30.8,23.2H1154.5z M1127.4,1138.7
			l-20.9-20.2h110.9l26.9,20.2H1127.4z M1103.4,1115.5l-18.4-17.8h104.8l23.6,17.8H1103.4z M1082,1094.7l-16.2-15.7h99.2l20.8,15.7
			H1082z M1077.7,1094.7H973.2l-11.6-15.7h99.9L1077.7,1094.7z M959.4,1076.1l-10.2-13.9h94.9l14.3,13.9H959.4z M955.7,1076.1h-99.5
			l-6.1-13.9h95.4L955.7,1076.1z M852.9,1076.1H753l-2-13.9h95.8L852.9,1076.1z M750,1076.1H650l2-13.9h95.9L750,1076.1z
			 M647,1076.1h-99.9l6.1-13.9H649L647,1076.1z M543.8,1076.1h-99.5l10.2-13.9H550L543.8,1076.1z M440.6,1076.1h-99l14.3-13.9h94.9
			L440.6,1076.1z M438.4,1079.1l-11.6,15.7H322.3l16.2-15.7H438.4z M318,1094.7H214.2l20.8-15.7h99.2L318,1094.7z M314.9,1097.7
			l-18.4,17.8h-110l23.6-17.8H314.9z M293.5,1118.5l-20.9,20.2H155.7l26.9-20.2H293.5z M269.5,1141.7l-24,23.2H120.9l30.8-23.2
			H269.5z M242.4,1167.9l-27.6,26.7H81.4l35.5-26.7H242.4z M211.7,1197.6l-32.1,31H36.2l41.3-31H211.7z M176.5,1231.7l-37.6,36.4
			h-155l48.3-36.4H176.5z M135.8,1271.1l-44.5,43.1H-77.4l57.2-43.1H135.8z M140.1,1271.1h156.6l-31.8,43.1H95.6L140.1,1271.1z
			 M300.4,1271.1h157.1l-19.1,43.1H268.6L300.4,1271.1z M460.8,1271.1h157.4l-6.4,43.1H441.7L460.8,1271.1z M621.2,1271.1h157.6
			l6.4,43.1H614.9L621.2,1271.1z M781.8,1271.1h157.4l19.1,43.1H788.2L781.8,1271.1z M942.5,1271.1h157.1l31.8,43.1H961.6
			L942.5,1271.1z M1103.3,1271.1h156.6l44.5,43.1h-169.3L1103.3,1271.1z M1264.2,1271.1h155.9l57.2,43.1h-168.7L1264.2,1271.1z
			 M1425.1,1271.1h155.2l69.9,43.1h-167.9L1425.1,1271.1z M1421.1,1268.1l-48.3-36.4h143.6l59.1,36.4H1421.1z M1368.8,1228.7
			l-41.3-31h133.6l50.4,31H1368.8z M1323.6,1194.6l-35.5-26.7h124.8l43.4,26.7H1323.6z M1284.1,1164.9l-30.8-23.2h117l37.7,23.2
			H1284.1z M1249.3,1138.7l-26.9-20.2h110.2l32.9,20.2H1249.3z M1218.4,1115.5l-23.6-17.8h104l28.8,17.8H1218.4z M1190.8,1094.7
			l-20.8-15.7h98.5l25.4,15.7H1190.8z M1166,1076.1l-18.4-13.9h93.6l22.5,13.9H1166z M1161,1076.1h-98.4l-14.3-13.9h94.3
			L1161,1076.1z M1045.3,1059.2l-12.7-12.3h89.7l16.4,12.3H1045.3z M1040.9,1059.2h-94l-9.1-12.3h90.4L1040.9,1059.2z M943.2,1059.2
			h-94.5l-5.5-12.3h90.9L943.2,1059.2z M845.4,1059.2h-94.9l-1.8-12.3h91.2L845.4,1059.2z M747.5,1059.2h-95l1.8-12.3h91.4
			L747.5,1059.2z M649.5,1059.2h-94.9l5.5-12.3h91.2L649.5,1059.2z M551.3,1059.2h-94.5l9.1-12.3h90.9L551.3,1059.2z M453.1,1059.2
			h-94l12.7-12.3h90.4L453.1,1059.2z M354.7,1059.2h-93.4l16.4-12.3h89.7L354.7,1059.2z M351.6,1062.2l-14.3,13.9H239l18.4-13.9
			H351.6z M234,1076.1h-97.7l22.5-13.9h93.6L234,1076.1z M230,1079.1l-20.8,15.7H106l25.4-15.7H230z M205.2,1097.7l-23.6,17.8H72.3
			l28.8-17.8H205.2z M177.6,1118.5l-26.9,20.2H34.6l32.9-20.2H177.6z M146.7,1141.7l-30.8,23.2H-8l37.7-23.2H146.7z M111.9,1167.9
			l-35.5,26.7H-56.3l43.4-26.7H111.9z M72.4,1197.6l-41.3,31h-142.7l50.4-31H72.4z M27.2,1231.7l-48.3,36.4h-154.3l59.1-36.4H27.2z
			 M-25.1,1271.1l-57.2,43.1h-167.9l69.9-43.1H-25.1z M-86.3,1317.1l-68.6,51.6H-339l83.8-51.6H-86.3z M-81.4,1317.1H88.2
			l-53.3,51.6h-184.8L-81.4,1317.1z M92.5,1317.1h170.2l-38.1,51.6H39.1L92.5,1317.1z M266.4,1317.1h170.7l-22.9,51.6H228.3
			L266.4,1317.1z M440.4,1317.1h171l-7.6,51.6H417.5L440.4,1317.1z M614.4,1317.1h171.2l7.6,51.6H606.8L614.4,1317.1z M788.6,1317.1
			h171l22.9,51.6H796.2L788.6,1317.1z M962.9,1317.1h170.7l38.1,51.6H985.8L962.9,1317.1z M1137.3,1317.1h170.2l53.3,51.6h-185.4
			L1137.3,1317.1z M1311.8,1317.1h169.5l68.6,51.6h-184.8L1311.8,1317.1z M1486.3,1317.1h168.8l83.8,51.6h-184.1L1486.3,1317.1z
			 M1660.9,1317.1H1829l99.1,51.6h-183.3L1660.9,1317.1z M1656,1314.1l-69.9-43.1h154.5l82.7,43.1H1656z M1581.2,1268.1l-59.1-36.4
			H1665l69.8,36.4H1581.2z M1517.3,1228.7l-50.4-31h132.8l59.6,31H1517.3z M1462,1194.6l-43.4-26.7h124l51.3,26.7H1462z
			 M1413.7,1164.9l-37.7-23.2h116.3l44.5,23.2H1413.7z M1371.2,1138.7l-32.9-20.2h109.4l38.8,20.2H1371.2z M1333.4,1115.5
			l-28.8-17.8h103.3l34.1,17.8H1333.4z M1299.7,1094.7l-25.4-15.7h97.8l30.1,15.7H1299.7z M1269.4,1076.1l-22.5-13.9h92.8l26.6,13.9
			H1269.4z M1242,1059.2l-20-12.3h88.3l23.6,12.3H1242z M1236.3,1059.2h-92.7l-16.4-12.3h89L1236.3,1059.2z M1123.3,1043.9l-14.6-11
			h84.9l17.8,11H1123.3z M1118.3,1043.9h-88.9l-11.3-11h85.6L1118.3,1043.9z M1025.1,1043.9h-89.5l-8.1-11h86.2L1025.1,1043.9z
			 M931.9,1043.9h-90l-4.9-11h86.8L931.9,1043.9z M838.6,1043.9h-90.3l-1.6-11h87.1L838.6,1043.9z M745.2,1043.9h-90.5l1.6-11h87.2
			L745.2,1043.9z M651.7,1043.9h-90.3l4.9-11h87.1L651.7,1043.9z M558.1,1043.9h-90l8.1-11H563L558.1,1043.9z M464.4,1043.9h-89.5
			l11.3-11h86.2L464.4,1043.9z M370.6,1043.9h-88.9l14.6-11h85.6L370.6,1043.9z M276.7,1043.9h-88.1l17.8-11h84.9L276.7,1043.9z
			 M272.7,1046.9l-16.4,12.3h-92.7l20-12.3H272.7z M158,1059.2H66.1l23.6-12.3H178L158,1059.2z M153.1,1062.2l-22.5,13.9H33.7
			l26.6-13.9H153.1z M125.7,1079.1l-25.4,15.7H-2.1l30.1-15.7H125.7z M95.4,1097.7l-28.8,17.8H-42l34.1-17.8H95.4z M61.7,1118.5
			l-32.9,20.2H-86.6l38.8-20.2H61.7z M24,1141.7l-37.7,23.2h-123.1l44.5-23.2H24z M-18.6,1167.9l-43.4,26.7h-131.9l51.3-26.7H-18.6z
			 M-66.8,1197.6l-50.4,31h-142l59.6-31H-66.8z M-122.1,1231.7l-59.1,36.4h-153.6l69.8-36.4H-122.1z M-186.1,1271.1l-69.9,43.1
			h-167.2l82.7-43.1H-186.1z M-260.9,1317.1l-83.8,51.6h-183.3l99.1-51.6H-260.9z M-349.6,1371.7l-102,62.8h-202.8l120.5-62.8
			H-349.6z M-343.9,1371.7h185l-83.4,62.8h-203.5L-343.9,1371.7z M-153.9,1371.7H31.7l-64.9,62.8h-204.2L-153.9,1371.7z M36,1371.7
			h186.3l-46.4,62.8H-28.9L36,1371.7z M226.1,1371.7h186.8l-27.8,62.8H179.7L226.1,1371.7z M416.2,1371.7h187.2l-9.3,62.8H388.3
			L416.2,1371.7z M606.4,1371.7h187.3l9.3,62.8H597.1L606.4,1371.7z M796.7,1371.7h187.2l27.8,62.8H805.9L796.7,1371.7z
			 M987.1,1371.7h186.8l46.4,62.8h-205.4L987.1,1371.7z M1177.7,1371.7H1364l64.9,62.8H1224L1177.7,1371.7z M1368.3,1371.7h185.7
			l83.4,62.8h-204.2L1368.3,1371.7z M1558.9,1371.7h185l102,62.8h-203.5L1558.9,1371.7z M1749.6,1371.7h184.2l120.5,62.8h-202.8
			L1749.6,1371.7z M1940.3,1371.7h183.4l139.1,62.8h-202L1940.3,1371.7z M1934.6,1368.7l-99.1-51.6h167.3l114.3,51.6H1934.6z
			 M1829.7,1314.1l-82.7-43.1h153.7l95.4,43.1H1829.7z M1741.3,1268.1l-69.8-36.4h142.1l80.6,36.4H1741.3z M1665.7,1228.7l-59.6-31
			h132l68.8,31H1665.7z M1600.4,1194.6l-51.3-26.7h123.2l59.2,26.7H1600.4z M1543.3,1164.9l-44.5-23.2h115.5l51.3,23.2H1543.3z
			 M1493.1,1138.7l-38.8-20.2h108.6l44.8,20.2H1493.1z M1448.5,1115.5l-34.1-17.8h102.5l39.3,17.8H1448.5z M1408.6,1094.7
			l-30.1-15.7h97l34.7,15.7H1408.6z M1372.8,1076.1l-26.6-13.9h92l30.7,13.9H1372.8z M1340.4,1059.2l-23.6-12.3h87.5l27.3,12.3
			H1340.4z M1311,1043.9l-21.1-11h83.4l24.3,11H1311z M1304.5,1043.9h-87.4l-17.8-11h84.2L1304.5,1043.9z M1194.4,1029.9l-15.9-9.8
			h80.4l18.8,9.8H1194.4z M1188.7,1029.9h-84l-13-9.8h81.1L1188.7,1029.9z M1099.7,1029.9H1015l-10.1-9.8h81.8L1099.7,1029.9z
			 M1010.7,1029.9h-85.4l-7.2-9.8h82.5L1010.7,1029.9z M921.6,1029.9h-85.9l-4.3-9.8h83L921.6,1029.9z M832.4,1029.9h-86.2l-1.4-9.8
			h83.3L832.4,1029.9z M743.2,1029.9h-86.3l1.4-9.8h83.5L743.2,1029.9z M653.8,1029.9h-86.2l4.3-9.8h83.3L653.8,1029.9z
			 M564.3,1029.9h-85.9l7.2-9.8h83L564.3,1029.9z M474.7,1029.9h-85.4l10.1-9.8h82.5L474.7,1029.9z M385,1029.9h-84.7l13-9.8h81.8
			L385,1029.9z M295.3,1029.9h-84l15.9-9.8h81.1L295.3,1029.9z M205.6,1029.9h-83.3l18.8-9.8h80.4L205.6,1029.9z M200.7,1032.9
			l-17.8,11H95.5l21.1-11H200.7z M89,1043.9H2.4l24.3-11H110L89,1043.9z M83.2,1046.9l-23.6,12.3h-91.1l27.3-12.3H83.2z
			 M53.8,1062.2l-26.6,13.9h-96.1l30.7-13.9H53.8z M21.4,1079.1l-30.1,15.7h-101.6l34.7-15.7H21.4z M-14.4,1097.7l-34.1,17.8h-107.8
			l39.3-17.8H-14.4z M-54.2,1118.5l-38.8,20.2h-114.6l44.8-20.2H-54.2z M-98.8,1141.7l-44.5,23.2h-122.4l51.3-23.2H-98.8z
			 M-149.1,1167.9l-51.3,26.7h-131.1l59.2-26.7H-149.1z M-206.1,1197.6l-59.6,31h-141.2l68.8-31H-206.1z M-271.5,1231.7l-69.8,36.4
			h-152.8l80.6-36.4H-271.5z M-347.1,1271.1l-82.7,43.1h-166.4l95.4-43.1H-347.1z M-435.5,1317.1l-99.1,51.6h-182.5l114.3-51.6
			H-435.5z M-540.3,1371.7l-120.5,62.8h-202l139.1-62.8H-540.3z M-666.6,1437.5l-149.3,77.8h-225.8l172.3-77.8H-666.6z
			 M-660.1,1437.5h203.6l-126.3,77.8h-226.6L-660.1,1437.5z M-450.7,1437.5h204.4l-103.4,77.8h-227.4L-450.7,1437.5z M-241.4,1437.5
			h205.1l-80.4,77.8h-228.1L-241.4,1437.5z M-32,1437.5h205.7l-57.4,77.8h-228.7L-32,1437.5z M177.5,1437.5h206.2l-34.5,77.8H120.1
			L177.5,1437.5z M387,1437.5h206.6l-11.5,77.8H352.6L387,1437.5z M596.6,1437.5h206.7l11.5,77.8H585.2L596.6,1437.5z M806.4,1437.5
			H1013l34.5,77.8H817.9L806.4,1437.5z M1016.3,1437.5h206.2l57.4,77.8h-229.2L1016.3,1437.5z M1226.2,1437.5H1432l80.4,77.8h-228.7
			L1226.2,1437.5z M1436.3,1437.5h205.1l103.4,77.8h-228.1L1436.3,1437.5z M1646.4,1437.5h204.4l126.3,77.8h-227.4L1646.4,1437.5z
			 M1856.5,1437.5h203.6l149.3,77.8h-226.6L1856.5,1437.5z M2066.6,1437.5h202.9l172.3,77.8h-225.8L2066.6,1437.5z M2276.7,1437.5
			h202l195.3,77.8h-225L2276.7,1437.5z M2270.1,1434.5l-139.1-62.8h182.6l157.6,62.8H2270.1z M2124.4,1368.7l-114.3-51.6h166.5
			l129.6,51.6H2124.4z M2003.4,1314.1l-95.4-43.1h152.9l108.1,43.1H2003.4z M1901.4,1268.1l-80.6-36.4h141.3l91.3,36.4H1901.4z
			 M1814.2,1228.7l-68.8-31h131.2l77.9,31H1814.2z M1738.8,1194.6l-59.2-26.7H1802l67.1,26.7H1738.8z M1673,1164.9l-51.3-23.2h114.7
			l58.2,23.2H1673z M1615,1138.7l-44.8-20.2H1678l50.8,20.2H1615z M1563.5,1115.5l-39.3-17.8h101.7l44.6,17.8H1563.5z
			 M1517.5,1094.7l-34.7-15.7h96.2l39.3,15.7H1517.5z M1476.2,1076.1l-30.7-13.9h91.2l34.8,13.9H1476.2z M1438.8,1059.2l-27.3-12.3
			h86.7l30.9,12.3H1438.8z M1404.9,1043.9l-24.3-11h82.6l27.5,11H1404.9z M1374,1029.9l-21.7-9.8h78.8l24.6,9.8H1374z
			 M1366.7,1029.9h-82.5l-18.8-9.8h79.6L1366.7,1029.9z M1259.7,1017.1l-16.8-8.8h76.1l19.4,8.8H1259.7z M1253.2,1017.1h-79.5
			l-14.2-8.8h76.9L1253.2,1017.1z M1167.9,1017.1h-80.2l-11.6-8.8h77.7L1167.9,1017.1z M1082.7,1017.1h-80.9l-9.1-8.8h78.4
			L1082.7,1017.1z M997.4,1017.1h-81.6l-6.5-8.8h79L997.4,1017.1z M912.1,1017.1H830l-3.9-8.8h79.5L912.1,1017.1z M826.8,1017.1
			h-82.4l-1.3-8.8h79.9L826.8,1017.1z M741.3,1017.1h-82.6l1.3-8.8h80L741.3,1017.1z M655.7,1017.1h-82.4l3.9-8.8H657L655.7,1017.1z
			 M570,1017.1h-82.1l6.5-8.8h79.5L570,1017.1z M484.1,1017.1h-81.6l9.1-8.8h79L484.1,1017.1z M398.2,1017.1h-80.9l11.6-8.8h78.4
			L398.2,1017.1z M312.3,1017.1h-80.2l14.2-8.8h77.7L312.3,1017.1z M226.3,1017.1h-79.5l16.8-8.8h76.9L226.3,1017.1z M140.3,1017.1
			H61.6l19.4-8.8h76.1L140.3,1017.1z M134.6,1020.1l-18.8,9.8H33.3l21.7-9.8H134.6z M26,1029.9h-81.7l24.6-9.8h78.8L26,1029.9z
			 M19.4,1032.9l-24.3,11h-85.8l27.5-11H19.4z M-11.6,1046.9l-27.3,12.3h-90.3l30.9-12.3H-11.6z M-45.5,1062.2l-30.7,13.9h-95.3
			l34.8-13.9H-45.5z M-82.8,1079.1l-34.7,15.7h-100.8l39.3-15.7H-82.8z M-124.2,1097.7l-39.3,17.8h-106.9l44.6-17.8H-124.2z
			 M-170.2,1118.5l-44.8,20.2h-113.8l50.8-20.2H-170.2z M-221.6,1141.7l-51.3,23.2h-121.5l58.2-23.2H-221.6z M-279.6,1167.9
			l-59.2,26.7h-130.3l67.1-26.7H-279.6z M-345.4,1197.6l-68.8,31h-140.4l77.9-31H-345.4z M-420.8,1231.7l-80.6,36.4h-152l91.3-36.4
			H-420.8z M-508,1271.1l-95.4,43.1H-769l108.1-43.1H-508z M-610.1,1317.1l-114.3,51.6h-181.7l129.6-51.6H-610.1z M-731,1371.7
			l-139.1,62.8h-201.2l157.6-62.8H-731z M-876.7,1437.5l-172.3,77.8h-225l195.3-77.8H-876.7z M-1055.7,1518.3l-218.3,98.6h-255
			l247.4-98.6H-1055.7z M-1048.4,1518.3h226.7l-189.2,98.6h-255.8L-1048.4,1518.3z M-815.2,1518.3h227.5l-160.1,98.6h-256.6
			L-815.2,1518.3z M-582,1518.3h228.2l-131,98.6h-257.4L-582,1518.3z M-348.7,1518.3h229l-101.9,98.6h-258.1L-348.7,1518.3z
			 M-115.5,1518.3h229.6l-72.8,98.6h-258.7L-115.5,1518.3z M117.9,1518.3H348l-43.7,98.6H45.1L117.9,1518.3z M351.2,1518.3h230.4
			l-14.6,98.6H307.6L351.2,1518.3z M584.7,1518.3h230.6l14.6,98.6H570.2L584.7,1518.3z M818.3,1518.3h230.4l43.7,98.6H832.9
			L818.3,1518.3z M1052,1518.3h230.1l72.8,98.6h-259.2L1052,1518.3z M1285.9,1518.3h229.6l101.9,98.6h-258.7L1285.9,1518.3z
			 M1519.8,1518.3h229l131,98.6h-258.1L1519.8,1518.3z M1753.7,1518.3H1982l160.1,98.6h-257.4L1753.7,1518.3z M1987.7,1518.3h227.5
			l189.2,98.6h-256.6L1987.7,1518.3z M2221.7,1518.3h226.7l218.3,98.6h-255.8L2221.7,1518.3z M2455.7,1518.3h225.9l247.4,98.6h-255
			L2455.7,1518.3z M2689.7,1518.3h225.1l276.5,98.6h-254.2L2689.7,1518.3z M2682.2,1515.3l-195.3-77.8h201.2l218.2,77.8H2682.2z
			 M2479.4,1434.5l-157.6-62.8h181.8l176.2,62.8H2479.4z M2314.2,1368.7l-129.6-51.6h165.7l144.8,51.6H2314.2z M2177.1,1314.1
			l-108.1-43.1h152.1l120.8,43.1H2177.1z M2061.5,1268.1l-91.3-36.4h140.4l102,36.4H2061.5z M1962.7,1228.7l-77.9-31h130.4l87.1,31
			H1962.7z M1877.2,1194.6l-67.1-26.7h121.6l75,26.7H1877.2z M1802.6,1164.9l-58.2-23.2h113.9l65,23.2H1802.6z M1736.9,1138.7
			l-50.8-20.2h107l56.8,20.2H1736.9z M1678.6,1115.5l-44.6-17.8h100.9l49.8,17.8H1678.6z M1626.5,1094.7l-39.3-15.7h95.4l43.9,15.7
			H1626.5z M1579.6,1076.1l-34.8-13.9h90.4l38.9,13.9H1579.6z M1537.3,1059.2l-30.9-12.3h85.9l34.5,12.3H1537.3z M1498.8,1043.9
			l-27.5-11h81.7l30.8,11H1498.8z M1463.8,1029.9l-24.6-9.8h78l27.5,9.8H1463.8z M1423.6,1017.1h-77.9l-19.4-8.8h75.3L1423.6,1017.1
			z M1319.6,1005.4l-17.4-7.8h72.1l19.7,7.8H1319.6z M1312.3,1005.4h-75.2l-15.1-7.8h72.9L1312.3,1005.4z M1230.6,1005.4h-76
			l-12.7-7.8h73.7L1230.6,1005.4z M1148.8,1005.4h-76.8l-10.4-7.8h74.5L1148.8,1005.4z M1067.1,1005.4h-77.5l-8.1-7.8h75.2
			L1067.1,1005.4z M985.3,1005.4h-78.1l-5.8-7.8h75.8L985.3,1005.4z M903.5,1005.4h-78.6l-3.5-7.8h76.3L903.5,1005.4z M821.6,1005.4
			h-79l-1.2-7.8h76.7L821.6,1005.4z M739.5,1005.4h-79.1l1.2-7.8h76.8L739.5,1005.4z M657.4,1005.4h-79l3.5-7.8h76.7L657.4,1005.4z
			 M575.2,1005.4h-78.6l5.8-7.8h76.3L575.2,1005.4z M492.8,1005.4h-78.1l8.1-7.8h75.8L492.8,1005.4z M410.4,1005.4h-77.5l10.4-7.8
			h75.2L410.4,1005.4z M327.9,1005.4h-76.8l12.7-7.8h74.5L327.9,1005.4z M245.4,1005.4h-76l15.1-7.8h73.7L245.4,1005.4z
			 M162.9,1005.4H87.7l17.4-7.8H178L162.9,1005.4z M80.4,1005.4H6l19.7-7.8h72.1L80.4,1005.4z M73.8,1008.4l-19.4,8.8h-77.9l22-8.8
			H73.8z M-31.7,1017.1h-77.1l24.6-8.8h74.5L-31.7,1017.1z M-39.2,1020.1l-24.6,9.8h-80.9l27.5-9.8H-39.2z M-71.3,1032.9l-27.5,11
			h-85l30.8-11H-71.3z M-106.4,1046.9l-30.9,12.3h-89.5l34.5-12.3H-106.4z M-144.8,1062.2l-34.8,13.9h-94.5l38.9-13.9H-144.8z
			 M-187.1,1079.1l-39.3,15.7h-100l43.9-15.7H-187.1z M-234,1097.7l-44.6,17.8h-106.1l49.8-17.8H-234z M-286.1,1118.5l-50.8,20.2
			h-113l56.8-20.2H-286.1z M-344.4,1141.7l-58.2,23.2h-120.7l65-23.2H-344.4z M-410.1,1167.9l-67.1,26.7h-129.5l75-26.7H-410.1z
			 M-484.8,1197.6l-77.9,31h-139.6l87.1-31H-484.8z M-570.2,1231.7l-91.3,36.4h-151.2l102-36.4H-570.2z M-669,1271.1l-108.1,43.1
			h-164.8l120.8-43.1H-669z M-784.7,1317.1l-129.6,51.6h-180.9l144.8-51.6H-784.7z M-921.8,1371.7l-157.6,62.8h-200.3l176.2-62.8
			H-921.8z M-1086.9,1437.5l-195.3,77.8h-224.2l218.2-77.8H-1086.9z M-1289.7,1518.3l-247.4,98.6h-254.2l276.5-98.6H-1289.7z
			 M-1544.7,1619.9l-322.7,128.6h-293l360.7-128.6H-1544.7z M-1536.5,1619.9h255.9l-284.8,128.6h-293.9L-1536.5,1619.9z
			 M-1273.4,1619.9h256.7l-246.8,128.6h-294.7L-1273.4,1619.9z M-1010.2,1619.9h257.5l-208.8,128.6h-295.5L-1010.2,1619.9z
			 M-746.9,1619.9h258.2l-170.9,128.6h-296.2L-746.9,1619.9z M-483.7,1619.9h258.9l-132.9,128.6h-296.9L-483.7,1619.9z
			 M-220.4,1619.9H39.1l-94.9,128.6h-297.5L-220.4,1619.9z M42.9,1619.9H303l-57,128.6H-52.1L42.9,1619.9z M306.2,1619.9h260.4
			l-19,128.6H249.3L306.2,1619.9z M569.7,1619.9h260.6l19,128.6H550.7L569.7,1619.9z M833.3,1619.9h260.4l57,128.6H852.3
			L833.3,1619.9z M1097,1619.9h260.1l94.9,128.6H1154L1097,1619.9z M1360.9,1619.9h259.6l132.9,128.6h-297.5L1360.9,1619.9z
			 M1624.8,1619.9h258.9l170.9,128.6h-296.9L1624.8,1619.9z M1888.7,1619.9h258.2l208.8,128.6h-296.2L1888.7,1619.9z M2152.7,1619.9
			h257.5l246.8,128.6h-295.5L2152.7,1619.9z M2416.6,1619.9h256.7l284.8,128.6h-294.7L2416.6,1619.9z M2680.6,1619.9h255.9
			l322.7,128.6h-293.9L2680.6,1619.9z M2944.7,1619.9h255.1l360.7,128.6h-293L2944.7,1619.9z M1475.7,1005.4h-73.6l-19.7-7.8h71.3
			L1475.7,1005.4z M-53.7,997.5h71.3l-19.7,7.8h-73.6L-53.7,997.5z"/>
		
			<linearGradient id="XMLID_6_" gradientUnits="userSpaceOnUse" x1="700" y1="1041.8809" x2="700" y2="593.7693" gradientTransform="matrix(1 0 0 -1 0 993.6559)">
			<stop  offset="0" style="stop-color:#FFFFFF"/>
			<stop  offset="1" style="stop-color:#FF7F8C;stop-opacity:0"/>
		</linearGradient>
		<path id="XMLID_834_" opacity="0.5" fill="url(#XMLID_6_)" d="M3569.1-350v-1.5h-5738.2v1.5l-0.5,1.4l2115.1,754l0.5-1.4v1.5h1508
			V404l0.5,1.4l2115.1-754L3569.1-350z M1484.2,391.6h-74.5l22-8.8h77.1L1484.2,391.6z M640.3,258.3l-3.4-23.2h126.2l-3.4,23.2
			H640.3z M759.2,261.3l-3,20.2H643.7l-3-20.2H759.2z M766.1,235.1h126.1L882,258.3H762.7L766.1,235.1z M637.3,258.3H518l-10.3-23.2
			h126.1L637.3,258.3z M506.4,232.1l-11.8-26.7h134.9l3.9,26.7H506.4z M632.5,205.4h135l-3.9,26.7H636.5L632.5,205.4z M770.5,205.4
			h134.9l-11.8,26.7h-127L770.5,205.4z M908.7,205.4h134.5l-19.7,26.7H896.8L908.7,205.4z M1021.2,235.1l-17.1,23.2H885.2l10.3-23.2
			H1021.2z M1001.9,261.3L987,281.5h-112l9-20.2H1001.9z M871.7,281.5H759.3l3-20.2h118.4L871.7,281.5z M870.3,284.5l-7.9,17.8
			H756.2l2.6-17.8H870.3z M753.2,302.3H646.8l-2.6-17.8h111.6L753.2,302.3z M643.8,302.3H537.5l-7.9-17.8h111.5L643.8,302.3z
			 M528.3,281.5l-9-20.2h118.4l3,20.2H528.3z M525.1,281.5H413l-14.9-20.2h118L525.1,281.5z M395.9,258.3l-17.1-23.2h125.7
			l10.3,23.2H395.9z M376.5,232.1l-19.7-26.7h134.5l11.8,26.7H376.5z M354.6,202.4l-22.9-31h144.6l13.8,31H354.6z M479.5,171.3
			h144.9l4.6,31H493.3L479.5,171.3z M627.5,171.3h145l-4.6,31H632.1L627.5,171.3z M775.6,171.3h144.9l-13.8,31H771L775.6,171.3z
			 M923.8,171.3h144.6l-22.9,31H910L923.8,171.3z M1072,171.3h144.1l-32.1,31h-134.9L1072,171.3z M1180.9,205.4l-27.6,26.7h-126.1
			l19.7-26.7H1180.9z M1150.2,235.1l-24,23.2h-118.4l17.1-23.2H1150.2z M1123.1,261.3l-20.9,20.2H990.7l14.9-20.2H1123.1z
			 M1099.1,284.5l-18.4,17.8H975.4l13.1-17.8H1099.1z M971.6,302.3H865.7l7.9-17.8h111.1L971.6,302.3z M969.4,305.3l-11.6,15.7
			H857.5l6.9-15.7H969.4z M854.2,320.9H753.5l2.3-15.7h105.4L854.2,320.9z M750.4,320.9H649.6l-2.3-15.7h105.5L750.4,320.9z
			 M646.5,320.9H545.8l-6.9-15.7h105.4L646.5,320.9z M542.5,320.9H442.1l-11.6-15.7h105L542.5,320.9z M428.4,302.3l-13.1-17.8h111.1
			l7.9,17.8H428.4z M424.6,302.3H319.2l-18.4-17.8h110.6L424.6,302.3z M297.8,281.5l-20.9-20.2h117.5l14.9,20.2H297.8z M273.8,258.3
			l-24-23.2H375l17.1,23.2H273.8z M246.7,232.1l-27.6-26.7h134l19.7,26.7H246.7z M216,202.4l-32.1-31H328l22.9,31H216z M180.8,168.3
			l-37.6-36.4h155.7l26.9,36.4H180.8z M302.6,131.9h156.2l16.1,36.4H329.5L302.6,131.9z M462.1,131.9h156.5l5.4,36.4H478.2
			L462.1,131.9z M621.7,131.9h156.7l-5.4,36.4H627L621.7,131.9z M781.4,131.9h156.5l-16.1,36.4H776L781.4,131.9z M941.2,131.9h156.2
			l-26.9,36.4H925.1L941.2,131.9z M1101.1,131.9h155.7l-37.6,36.4h-144.9L1101.1,131.9z M1261.1,131.9h155l-48.3,36.4h-144.3
			L1261.1,131.9z M1363.8,171.3l-41.3,31h-134.3l32.1-31H1363.8z M1318.6,205.4l-35.5,26.7h-125.5l27.6-26.7H1318.6z M1279.1,235.1
			l-30.8,23.2h-117.7l24-23.2H1279.1z M1244.3,261.3l-26.9,20.2h-110.9l20.9-20.2H1244.3z M1213.4,284.5l-23.6,17.8h-104.8
			l18.4-17.8H1213.4z M1185.8,305.3l-20.8,15.7h-99.2l16.2-15.7H1185.8z M1061.5,320.9h-99.9l11.6-15.7h104.5L1061.5,320.9z
			 M1058.4,323.9l-14.3,13.9h-94.9l10.2-13.9H1058.4z M945.4,337.8H850l6.1-13.9h99.5L945.4,337.8z M846.7,337.8H751l2-13.9h99.9
			L846.7,337.8z M747.9,337.8h-95.9l-2-13.9h100L747.9,337.8z M649,337.8h-95.8l-6.1-13.9H647L649,337.8z M550,337.8h-95.4
			l-10.2-13.9h99.5L550,337.8z M450.9,337.8H356l-14.3-13.9h99L450.9,337.8z M338.5,320.9l-16.2-15.7h104.5l11.6,15.7H338.5z
			 M334.2,320.9H235l-20.8-15.7H318L334.2,320.9z M210.2,302.3l-23.6-17.8h110l18.4,17.8H210.2z M182.6,281.5l-26.9-20.2h116.9
			l20.9,20.2H182.6z M151.7,258.3l-30.8-23.2h124.6l24,23.2H151.7z M116.9,232.1l-35.5-26.7h133.4l27.6,26.7H116.9z M77.4,202.4
			l-41.3-31h143.4l32.1,31H77.4z M32.2,168.3l-48.3-36.4h155l37.6,36.4H32.2z M-20.1,128.9l-57.2-43.1H91.3l44.5,43.1H-20.1z
			 M95.6,85.9h169.3l31.8,43.1H140.1L95.6,85.9z M268.6,85.9h169.8l19.1,43.1H300.4L268.6,85.9z M441.7,85.9h170.1l6.4,43.1H460.8
			L441.7,85.9z M614.9,85.9h170.3l-6.4,43.1H621.2L614.9,85.9z M788.2,85.9h170.1l-19.1,43.1H781.8L788.2,85.9z M961.6,85.9h169.8
			l-31.8,43.1H942.5L961.6,85.9z M1135.1,85.9h169.3l-44.5,43.1h-156.6L1135.1,85.9z M1308.7,85.9h168.7l-57.2,43.1h-155.9
			L1308.7,85.9z M1482.4,85.9h167.9l-69.9,43.1h-155.2L1482.4,85.9z M1575.5,131.9l-59.1,36.4h-143.6l48.3-36.4H1575.5z
			 M1511.5,171.3l-50.4,31h-133.6l41.3-31H1511.5z M1456.3,205.4l-43.4,26.7h-124.8l35.5-26.7H1456.3z M1408,235.1l-37.7,23.2h-117
			l30.8-23.2H1408z M1365.4,261.3l-32.9,20.2h-110.2l26.9-20.2H1365.4z M1327.7,284.5l-28.8,17.8h-104l23.6-17.8H1327.7z
			 M1294,305.3l-25.4,15.7H1170l20.8-15.7H1294z M1263.7,323.9l-22.5,13.9h-93.6l18.4-13.9H1263.7z M1142.6,337.8h-94.3l14.3-13.9
			h98.4L1142.6,337.8z M1138.6,340.8l-16.4,12.3h-89.7l12.7-12.3H1138.6z M1028.2,353.1h-90.4l9.1-12.3h94L1028.2,353.1z
			 M934.1,353.1h-90.9l5.5-12.3h94.5L934.1,353.1z M839.9,353.1h-91.2l1.8-12.3h94.9L839.9,353.1z M745.7,353.1h-91.4l-1.8-12.3h95
			L745.7,353.1z M651.3,353.1h-91.2l-5.5-12.3h94.9L651.3,353.1z M556.8,353.1h-90.9l-9.1-12.3h94.5L556.8,353.1z M462.2,353.1
			h-90.4l-12.7-12.3h94L462.2,353.1z M367.5,353.1h-89.7l-16.4-12.3h93.4L367.5,353.1z M257.4,337.8L239,323.9h98.4l14.3,13.9H257.4
			z M252.4,337.8h-93.6l-22.5-13.9H234L252.4,337.8z M131.4,320.9L106,305.3h103.2l20.8,15.7H131.4z M101.1,302.3l-28.8-17.8h109.3
			l23.6,17.8H101.1z M67.4,281.5l-32.9-20.2h116.2l26.9,20.2H67.4z M29.7,258.3L-8,235.1h123.9l30.8,23.2H29.7z M-12.8,232.1
			l-43.4-26.7H76.4l35.5,26.7H-12.8z M-61.1,202.4l-50.4-31H31.2l41.3,31H-61.1z M-116.4,168.3l-59.1-36.4h154.3l48.3,36.4H-116.4z
			 M-180.4,128.9l-69.9-43.1h167.9l57.2,43.1H-180.4z M-255.2,82.9L-339,31.3h184.1l68.6,51.6H-255.2z M-149.9,31.3H34.8l53.3,51.6
			H-81.4L-149.9,31.3z M39.1,31.3h185.4l38.1,51.6H92.5L39.1,31.3z M228.3,31.3h185.9l22.9,51.6H266.4L228.3,31.3z M417.5,31.3
			h186.3l7.6,51.6h-171L417.5,31.3z M606.8,31.3h186.4l-7.6,51.6H614.4L606.8,31.3z M796.2,31.3h186.3l-22.9,51.6h-171L796.2,31.3z
			 M985.8,31.3h185.9l-38.1,51.6H962.9L985.8,31.3z M1175.4,31.3h185.4l-53.3,51.6h-170.2L1175.4,31.3z M1365.2,31.3h184.8
			l-68.6,51.6h-169.5L1365.2,31.3z M1554.9,31.3H1739l-83.8,51.6h-168.8L1554.9,31.3z M1744.7,31.3h183.3L1829,82.9h-168.1
			L1744.7,31.3z M1823.2,85.9l-82.7,43.1h-154.5l69.9-43.1H1823.2z M1734.8,131.9l-69.8,36.4h-142.9l59.1-36.4H1734.8z
			 M1659.2,171.3l-59.6,31h-132.8l50.4-31H1659.2z M1593.9,205.4l-51.3,26.7h-124l43.4-26.7H1593.9z M1536.8,235.1l-44.5,23.2H1376
			l37.7-23.2H1536.8z M1486.6,261.3l-38.8,20.2h-109.4l32.9-20.2H1486.6z M1442,284.5l-34.1,17.8h-103.3l28.8-17.8H1442z
			 M1402.1,305.3l-30.1,15.7h-97.8l25.4-15.7H1402.1z M1366.3,323.9l-26.6,13.9h-92.8l22.5-13.9H1366.3z M1333.9,340.8l-23.6,12.3
			H1222l20-12.3H1333.9z M1216.3,353.1h-89l16.4-12.3h92.7L1216.3,353.1z M1211.4,356.1l-17.8,11h-84.9l14.6-11H1211.4z
			 M1103.7,367.1h-85.6l11.3-11h88.9L1103.7,367.1z M1013.8,367.1h-86.2l8.1-11h89.5L1013.8,367.1z M923.8,367.1H837l4.9-11h90
			L923.8,367.1z M833.8,367.1h-87.1l1.6-11h90.3L833.8,367.1z M743.6,367.1h-87.2l-1.6-11h90.5L743.6,367.1z M653.4,367.1h-87.1
			l-4.9-11h90.3L653.4,367.1z M563,367.1h-86.8l-8.1-11h90L563,367.1z M472.5,367.1h-86.2l-11.3-11h89.5L472.5,367.1z M381.9,367.1
			h-85.6l-14.6-11h88.9L381.9,367.1z M291.3,367.1h-84.9l-17.8-11h88.1L291.3,367.1z M183.7,353.1l-20-12.3h92.7l16.4,12.3H183.7z
			 M178,353.1H89.7l-23.6-12.3H158L178,353.1z M60.3,337.8l-26.6-13.9h96.9l22.5,13.9H60.3z M27.9,320.9l-30.1-15.7h102.4l25.4,15.7
			H27.9z M-7.9,302.3L-42,284.5H66.6l28.8,17.8H-7.9z M-47.7,281.5l-38.8-20.2H28.8l32.9,20.2H-47.7z M-92.3,258.3l-44.5-23.2h123.1
			L24,258.3H-92.3z M-142.6,232.1l-51.3-26.7H-62l43.4,26.7H-142.6z M-199.6,202.4l-59.6-31h142l50.4,31H-199.6z M-265,168.3
			l-69.8-36.4h153.6l59.1,36.4H-265z M-340.6,128.9l-82.7-43.1H-256l69.9,43.1H-340.6z M-429,82.9l-99.1-51.6h183.3l83.8,51.6H-429z
			 M-533.8,28.3l-120.5-62.8h202.8l102,62.8H-533.8z M-445.9-34.5h203.5l83.4,62.8h-185L-445.9-34.5z M-237.4-34.5h204.2l64.9,62.8
			h-185.7L-237.4-34.5z M-28.9-34.5H176l46.4,62.8H36L-28.9-34.5z M179.7-34.5h205.4l27.8,62.8H226.1L179.7-34.5z M388.3-34.5h205.7
			l9.3,62.8H416.2L388.3-34.5z M597.1-34.5h205.8l-9.3,62.8H606.4L597.1-34.5z M805.9-34.5h205.7l-27.8,62.8H796.7L805.9-34.5z
			 M1014.9-34.5h205.4l-46.4,62.8H987.1L1014.9-34.5z M1224-34.5h204.8L1364,28.3h-186.3L1224-34.5z M1433.2-34.5h204.2l-83.4,62.8
			h-185.7L1433.2-34.5z M1642.4-34.5h203.5l-102,62.8h-185L1642.4-34.5z M1851.6-34.5h202.8l-120.5,62.8h-184.2L1851.6-34.5z
			 M2060.8-34.5h202l-139.1,62.8h-183.4L2060.8-34.5z M2117.1,31.3l-114.3,51.6h-167.3l99.1-51.6H2117.1z M1996.1,85.9l-95.4,43.1
			h-153.7l82.7-43.1H1996.1z M1894.1,131.9l-80.6,36.4h-142.1l69.8-36.4H1894.1z M1806.9,171.3l-68.8,31h-132l59.6-31H1806.9z
			 M1731.5,205.4l-59.2,26.7h-123.2l51.3-26.7H1731.5z M1665.7,235.1l-51.3,23.2h-115.5l44.5-23.2H1665.7z M1607.7,261.3l-44.8,20.2
			h-108.6l38.8-20.2H1607.7z M1556.2,284.5l-39.3,17.8h-102.5l34.1-17.8H1556.2z M1510.2,305.3l-34.7,15.7h-97l30.1-15.7H1510.2z
			 M1468.9,323.9l-30.7,13.9h-92l26.6-13.9H1468.9z M1431.6,340.8l-27.3,12.3h-87.5l23.6-12.3H1431.6z M1397.6,356.1l-24.3,11H1290
			l21.1-11H1397.6z M1283.5,367.1h-84.2l17.8-11h87.4L1283.5,367.1z M1277.7,370.1l-18.8,9.8h-80.4l15.9-9.8H1277.7z M1172.8,379.9
			h-81.1l13-9.8h84L1172.8,379.9z M1086.7,379.9h-81.8l10.1-9.8h84.7L1086.7,379.9z M1000.5,379.9h-82.5l7.2-9.8h85.4L1000.5,379.9z
			 M914.4,379.9h-83l4.3-9.8h85.9L914.4,379.9z M828.1,379.9h-83.3l1.4-9.8h86.2L828.1,379.9z M741.7,379.9h-83.5l-1.4-9.8h86.3
			L741.7,379.9z M655.2,379.9h-83.3l-4.3-9.8h86.2L655.2,379.9z M568.6,379.9h-83l-7.2-9.8h85.9L568.6,379.9z M481.9,379.9h-82.5
			l-10.1-9.8h85.4L481.9,379.9z M395.1,379.9h-81.8l-13-9.8H385L395.1,379.9z M308.3,379.9h-81.1l-15.9-9.8h84L308.3,379.9z
			 M221.5,379.9h-80.4l-18.8-9.8h83.3L221.5,379.9z M116.5,367.1l-21.1-11h87.4l17.8,11H116.5z M110,367.1H26.7l-24.3-11H89
			L110,367.1z M-4.3,353.1l-27.3-12.3h91.1l23.6,12.3H-4.3z M-38.2,337.8l-30.7-13.9h96.1l26.6,13.9H-38.2z M-75.6,320.9l-34.7-15.7
			H-8.6l30.1,15.7H-75.6z M-116.9,302.3l-39.3-17.8h107.8l34.1,17.8H-116.9z M-162.9,281.5l-44.8-20.2h114.6l38.8,20.2H-162.9z
			 M-214.3,258.3l-51.3-23.2h122.4l44.5,23.2H-214.3z M-272.3,232.1l-59.2-26.7h131.1l51.3,26.7H-272.3z M-338.2,202.4l-68.8-31
			h141.2l59.6,31H-338.2z M-413.6,168.3l-80.6-36.4h152.8l69.8,36.4H-413.6z M-500.8,128.9l-95.4-43.1h166.4l82.7,43.1H-500.8z
			 M-602.8,82.9l-114.3-51.6h182.5l99.1,51.6H-602.8z M-723.7,28.3l-139.1-62.8h202l120.5,62.8H-723.7z M-869.5-37.5l-172.3-77.8
			h225.8l149.3,77.8H-869.5z M-809.4-115.3h226.6l126.3,77.8h-203.6L-809.4-115.3z M-577.1-115.3h227.4l103.4,77.8h-204.4
			L-577.1-115.3z M-344.7-115.3h228.1l80.4,77.8h-205.1L-344.7-115.3z M-112.4-115.3h228.7l57.4,77.8H-32L-112.4-115.3z
			 M120.1-115.3h229.2l34.5,77.8H177.5L120.1-115.3z M352.6-115.3h229.6l11.5,77.8H387L352.6-115.3z M585.2-115.3h229.7l-11.5,77.8
			H596.6L585.2-115.3z M817.9-115.3h229.6L1013-37.5H806.4L817.9-115.3z M1050.7-115.3h229.2l-57.4,77.8h-206.2L1050.7-115.3z
			 M1283.7-115.3h228.7L1432-37.5h-205.7L1283.7-115.3z M1516.7-115.3h228.1l-103.4,77.8h-205.1L1516.7-115.3z M1749.7-115.3h227.4
			l-126.3,77.8h-204.4L1749.7-115.3z M1982.8-115.3h226.6l-149.3,77.8h-203.6L1982.8-115.3z M2215.9-115.3h225.8l-172.3,77.8h-202.9
			L2215.9-115.3z M2449-115.3h225l-195.3,77.8h-202L2449-115.3z M2471.3-34.5l-157.6,62.8H2131l139.1-62.8H2471.3z M2306.1,31.3
			l-129.6,51.6h-166.5l114.3-51.6H2306.1z M2169,85.9l-108.1,43.1H1908l95.4-43.1H2169z M2053.4,131.9l-91.3,36.4h-141.3l80.6-36.4
			H2053.4z M1954.6,171.3l-77.9,31h-131.2l68.8-31H1954.6z M1869.1,205.4l-67.1,26.7h-122.4l59.2-26.7H1869.1z M1794.5,235.1
			l-58.2,23.2h-114.7l51.3-23.2H1794.5z M1728.8,261.3l-50.8,20.2h-107.8l44.8-20.2H1728.8z M1670.5,284.5l-44.6,17.8h-101.7
			l39.3-17.8H1670.5z M1618.3,305.3l-39.3,15.7h-96.2l34.7-15.7H1618.3z M1571.5,323.9l-34.8,13.9h-91.2l30.7-13.9H1571.5z
			 M1529.2,340.8l-30.9,12.3h-86.7l27.3-12.3H1529.2z M1490.7,356.1l-27.5,11h-82.6l24.3-11H1490.7z M1455.7,370.1l-24.6,9.8h-78.8
			l21.7-9.8H1455.7z M1345,379.9h-79.6l18.8-9.8h82.5L1345,379.9z M1338.4,382.9l-19.4,8.8h-76.1l16.8-8.8H1338.4z M1236.3,391.6
			h-76.9l14.2-8.8h79.5L1236.3,391.6z M1153.7,391.6h-77.7l11.6-8.8h80.2L1153.7,391.6z M1071.1,391.6h-78.4l9.1-8.8h80.9
			L1071.1,391.6z M988.4,391.6h-79l6.5-8.8h81.6L988.4,391.6z M905.7,391.6h-79.5l3.9-8.8h82.1L905.7,391.6z M822.9,391.6H743
			l1.3-8.8h82.4L822.9,391.6z M740,391.6h-80l-1.3-8.8h82.6L740,391.6z M657,391.6h-79.9l-3.9-8.8h82.4L657,391.6z M573.8,391.6
			h-79.5l-6.5-8.8H570L573.8,391.6z M490.6,391.6h-79l-9.1-8.8h81.6L490.6,391.6z M407.3,391.6h-78.4l-11.6-8.8h80.9L407.3,391.6z
			 M323.9,391.6h-77.7l-14.2-8.8h80.2L323.9,391.6z M240.6,391.6h-76.9l-16.8-8.8h79.5L240.6,391.6z M157.2,391.6H81l-19.4-8.8h78.7
			L157.2,391.6z M55,379.9l-21.7-9.8h82.5l18.8,9.8H55z M47.7,379.9h-78.8l-24.6-9.8H26L47.7,379.9z M-63.2,367.1l-27.5-11h85.8
			l24.3,11H-63.2z M-98.3,353.1l-30.9-12.3h90.3l27.3,12.3H-98.3z M-136.7,337.8l-34.8-13.9h95.3l30.7,13.9H-136.7z M-179,320.9
			l-39.3-15.7h100.8l34.7,15.7H-179z M-225.9,302.3l-44.6-17.8h106.9l39.3,17.8H-225.9z M-278,281.5l-50.8-20.2H-215l44.8,20.2H-278
			z M-336.3,258.3l-58.2-23.2H-273l51.3,23.2H-336.3z M-402,232.1l-67.1-26.7h130.3l59.2,26.7H-402z M-476.6,202.4l-77.9-31h140.4
			l68.8,31H-476.6z M-562.1,168.3l-91.3-36.4h152l80.6,36.4H-562.1z M-660.9,128.9L-769,85.9h165.6l95.4,43.1H-660.9z M-776.6,82.9
			l-129.6-51.6h181.7l114.3,51.6H-776.6z M-913.6,28.3l-157.6-62.8h201.2L-731,28.3H-913.6z M-1078.8-37.5l-195.3-77.8h225
			l172.3,77.8H-1078.8z M-1281.6-118.3l-247.4-98.6h255l218.3,98.6H-1281.6z M-1266.7-216.9h255.8l189.2,98.6h-226.7L-1266.7-216.9z
			 M-1004.4-216.9h256.6l160.1,98.6h-227.5L-1004.4-216.9z M-742.1-216.9h257.4l131,98.6H-582L-742.1-216.9z M-479.7-216.9h258.1
			l101.9,98.6h-229L-479.7-216.9z M-217.3-216.9H41.3l72.8,98.6h-229.6L-217.3-216.9z M45.1-216.9h259.2l43.7,98.6H117.9L45.1-216.9
			z M307.6-216.9h259.6l14.6,98.6H351.2L307.6-216.9z M570.2-216.9h259.7l-14.6,98.6H584.7L570.2-216.9z M832.9-216.9h259.6
			l-43.7,98.6H818.3L832.9-216.9z M1095.7-216.9h259.2l-72.8,98.6H1052L1095.7-216.9z M1358.7-216.9h258.7l-101.9,98.6h-229.6
			L1358.7-216.9z M1621.7-216.9h258.1l-131,98.6h-229L1621.7-216.9z M1884.7-216.9h257.4L1982-118.3h-228.2L1884.7-216.9z
			 M2147.8-216.9h256.6l-189.2,98.6h-227.5L2147.8-216.9z M2410.9-216.9h255.8l-218.3,98.6h-226.7L2410.9-216.9z M2674-216.9h255
			l-247.4,98.6h-225.9L2674-216.9z M2937.1-216.9h254.2l-276.5,98.6h-225.1L2937.1-216.9z M2906.4-115.3l-218.2,77.8h-201.2
			l195.3-77.8H2906.4z M2679.7-34.5l-176.2,62.8h-181.8l157.6-62.8H2679.7z M2495.1,31.3l-144.8,51.6h-165.7l129.6-51.6H2495.1z
			 M2341.9,85.9l-120.8,43.1H2069l108.1-43.1H2341.9z M2212.7,131.9l-102,36.4h-140.4l91.3-36.4H2212.7z M2102.2,171.3l-87.1,31
			h-130.4l77.9-31H2102.2z M2006.7,205.4l-75,26.7h-121.6l67.1-26.7H2006.7z M1923.3,235.1l-65,23.2h-113.9l58.2-23.2H1923.3z
			 M1849.9,261.3l-56.8,20.2h-107l50.8-20.2H1849.9z M1784.7,284.5l-49.8,17.8H1634l44.6-17.8H1784.7z M1726.5,305.3l-43.9,15.7
			h-95.4l39.3-15.7H1726.5z M1674.1,323.9l-38.9,13.9h-90.4l34.8-13.9H1674.1z M1626.8,340.8l-34.5,12.3h-85.9l30.9-12.3H1626.8z
			 M1583.8,356.1l-30.8,11h-81.7l27.5-11H1583.8z M1544.6,370.1l-27.5,9.8h-78l24.6-9.8H1544.6z M1401.6,391.6h-75.3l19.4-8.8h77.9
			L1401.6,391.6z M1394,394.6l-19.7,7.8h-72.1l17.4-7.8H1394z M1294.9,402.5H1222l15.1-7.8h75.2L1294.9,402.5z M1215.5,402.5h-73.7
			l12.7-7.8h76L1215.5,402.5z M1136.1,402.5h-74.5l10.4-7.8h76.8L1136.1,402.5z M1056.6,402.5h-75.2l8.1-7.8h77.5L1056.6,402.5z
			 M977.2,402.5h-75.8l5.8-7.8h78.1L977.2,402.5z M897.7,402.5h-76.3l3.5-7.8h78.6L897.7,402.5z M818.1,402.5h-76.7l1.2-7.8h79
			L818.1,402.5z M738.4,402.5h-76.8l-1.2-7.8h79.1L738.4,402.5z M658.6,402.5h-76.7l-3.5-7.8h79L658.6,402.5z M578.6,402.5h-76.3
			l-5.8-7.8h78.6L578.6,402.5z M498.6,402.5h-75.8l-8.1-7.8h78.1L498.6,402.5z M418.5,402.5h-75.2l-10.4-7.8h77.5L418.5,402.5z
			 M338.4,402.5h-74.5l-12.7-7.8h76.8L338.4,402.5z M258.2,402.5h-73.7l-15.1-7.8h76L258.2,402.5z M178,402.5h-72.9l-17.4-7.8h75.2
			L178,402.5z M97.8,402.5H25.7L6,394.6h74.4L97.8,402.5z M-1.6,391.6l-22-8.8h77.9l19.4,8.8H-1.6z M-9.7,391.6h-74.5l-24.6-8.8
			h77.1L-9.7,391.6z M-117.2,379.9l-27.5-9.8h80.9l24.6,9.8H-117.2z M-153.1,367.1l-30.8-11h85l27.5,11H-153.1z M-192.2,353.1
			l-34.5-12.3h89.5l30.9,12.3H-192.2z M-235.2,337.8l-38.9-13.9h94.5l34.8,13.9H-235.2z M-282.5,320.9l-43.9-15.7h100l39.3,15.7
			H-282.5z M-334.9,302.3l-49.8-17.8h106.1l44.6,17.8H-334.9z M-393.1,281.5l-56.8-20.2h113l50.8,20.2H-393.1z M-458.3,258.3
			l-65-23.2h120.7l58.2,23.2H-458.3z M-531.7,232.1l-75-26.7h129.5l67.1,26.7H-531.7z M-615.1,202.4l-87.1-31h139.6l77.9,31H-615.1z
			 M-710.6,168.3l-102-36.4h151.2l91.3,36.4H-710.6z M-821.1,128.9l-120.8-43.1h164.8l108.1,43.1H-821.1z M-950.3,82.9l-144.8-51.6
			h180.9l129.6,51.6H-950.3z M-1103.5,28.3l-176.2-62.8h200.3l157.6,62.8H-1103.5z M-1288.1-37.5l-218.2-77.8h224.2l195.3,77.8
			H-1288.1z M-1514.8-118.3l-276.5-98.6h254.2l247.4,98.6H-1514.8z M-1799.7-219.9l-360.7-128.6h293l322.7,128.6H-1799.7z
			 M-1859.3-348.5h293.9l284.8,128.6h-255.9L-1859.3-348.5z M-1558.1-348.5h294.7l246.8,128.6h-256.7L-1558.1-348.5z M-1256.9-348.5
			h295.5l208.8,128.6h-257.5L-1256.9-348.5z M-955.8-348.5h296.2l170.9,128.6h-258.2L-955.8-348.5z M-654.6-348.5h296.9l132.9,128.6
			h-258.9L-654.6-348.5z M-353.3-348.5h297.5l94.9,128.6h-259.6L-353.3-348.5z M-52.1-348.5H246l57,128.6H42.9L-52.1-348.5z
			 M249.3-348.5h298.4l19,128.6H306.2L249.3-348.5z M550.7-348.5h298.5l-19,128.6H569.7L550.7-348.5z M852.3-348.5h298.4l-57,128.6
			H833.3L852.3-348.5z M1154-348.5h298.1l-94.9,128.6H1097L1154-348.5z M1455.8-348.5h297.5l-132.9,128.6h-259.6L1455.8-348.5z
			 M1757.6-348.5h296.9l-170.9,128.6h-258.9L1757.6-348.5z M2059.6-348.5h296.2l-208.8,128.6h-258.2L2059.6-348.5z M2361.5-348.5
			h295.5l-246.8,128.6h-257.5L2361.5-348.5z M2663.4-348.5h294.7l-284.8,128.6h-256.7L2663.4-348.5z M2965.4-348.5h293.9
			l-322.7,128.6h-255.9L2965.4-348.5z M3267.4-348.5h293l-360.7,128.6h-255.1L3267.4-348.5z M1453.7,402.5h-71.3l19.7-7.8h73.6
			L1453.7,402.5z M-75.7,394.6h73.6l19.7,7.8h-71.3L-75.7,394.6z"/>
	</g>
</g>
<g id="XMLID_115_">
	<path id="XMLID_808_" fill="#FFFFFF" d="M746.8,829.8c-3.7,1.4-7.5,2.5-11.4,3.6h-70.9c-3.9-1-7.7-2.2-11.4-3.6H746.8z"/>
	<path id="XMLID_809_" fill="#FFFFFF" d="M791.7,803.1c-1.9,1.7-3.9,3.4-5.9,5H614.2c-2-1.6-4-3.3-5.9-5H791.7z"/>
	<path id="XMLID_295_" fill="#FFFFFF" d="M814.9,776.3c-1.4,2.2-2.9,4.3-4.5,6.4H589.6c-1.6-2.1-3.1-4.2-4.5-6.4H814.9z"/>
	<path id="XMLID_293_" fill="#FFFFFF" d="M828.7,749.6c-1,2.6-2.1,5.3-3.3,7.8H574.6c-1.2-2.6-2.3-5.2-3.3-7.8H828.7z"/>
	<path id="XMLID_1425_" fill="#FFFFFF" d="M564,722.8h272c-0.5,3.1-1.1,6.2-1.9,9.2H565.9C565.1,729,564.5,725.9,564,722.8z"/>
	<path id="XMLID_826_" fill="#FFFFFF" d="M767.6,580H632.4c20-11.3,43-17.7,67.6-17.7S747.6,568.8,767.6,580z"/>
	<path id="XMLID_1423_" fill="#FFFFFF" d="M800,605.4H600c5.6-6,11.8-11.4,18.4-16.3h163.2C788.2,594,794.4,599.4,800,605.4z"/>
	<path id="XMLID_1424_" fill="#FFFFFF" d="M819.1,630.7H580.9c3-5.2,6.4-10.1,10-14.9H809C812.7,620.6,816.1,625.5,819.1,630.7z"/>
	<path id="XMLID_1427_" fill="#FFFFFF" d="M830.6,656H569.4c1.5-4.6,3.3-9.1,5.3-13.5h250.5C827.3,647,829.1,651.4,830.6,656z"/>
	<path id="XMLID_1426_" fill="#FFFFFF" d="M836.6,681.4H563.4c0.6-4.1,1.3-8.1,2.2-12h268.8C835.3,673.3,836,677.3,836.6,681.4z"/>
	<path id="XMLID_810_" fill="#FFFFFF" d="M837.8,700.2c0,2.2-0.1,4.4-0.2,6.5H562.3c-0.1-2.2-0.2-4.4-0.2-6.5c0-1.4,0-2.7,0.1-4.1
		h275.6C837.8,697.4,837.8,698.8,837.8,700.2z"/>
</g>
<g id="XMLID_146_" opacity="0.29">
	
		<radialGradient id="XMLID_7_" cx="703.5" cy="1277.2065" r="183.6122" gradientTransform="matrix(1 0 0 -0.4433 0 1661.7543)" gradientUnits="userSpaceOnUse">
		<stop  offset="0.629" style="stop-color:#FFFFFF;stop-opacity:0.5"/>
		<stop  offset="0.6317" style="stop-color:#FFFFFF;stop-opacity:0.4964"/>
		<stop  offset="1" style="stop-color:#FFFFFF;stop-opacity:0"/>
	</radialGradient>
	<ellipse id="XMLID_159_" fill="url(#XMLID_7_)" cx="703.5" cy="1095.5" rx="183.6" ry="81.4"/>
	<g id="XMLID_147_">
		<path id="XMLID_158_" fill="#FFFFFF" d="M750.3,1038c-3.7-0.6-7.5-1.1-11.4-1.6h-70.9c-3.9,0.5-7.7,1-11.4,1.6H750.3z"/>
		<path id="XMLID_157_" fill="#FFFFFF" d="M795.2,1049.8c-1.9-0.8-3.9-1.5-5.9-2.2H617.7c-2,0.7-4,1.4-5.9,2.2H795.2z"/>
		<path id="XMLID_156_" fill="#FFFFFF" d="M818.4,1061.7c-1.4-1-2.9-1.9-4.5-2.8H593.1c-1.6,0.9-3.1,1.9-4.5,2.8H818.4z"/>
		<path id="XMLID_155_" fill="#FFFFFF" d="M832.2,1073.5c-1-1.2-2.1-2.3-3.3-3.5H578.1c-1.2,1.1-2.3,2.3-3.3,3.5H832.2z"/>
		<path id="XMLID_154_" fill="#FFFFFF" d="M567.5,1085.4h272c-0.5-1.4-1.1-2.7-1.9-4.1H569.4C568.6,1082.7,568,1084,567.5,1085.4z"
			/>
		<path id="XMLID_153_" fill="#FFFFFF" d="M771.1,1148.7H635.9c20,5,43,7.8,67.6,7.8S751.1,1153.7,771.1,1148.7z"/>
		<path id="XMLID_152_" fill="#FFFFFF" d="M803.5,1137.5H603.5c5.6,2.6,11.8,5.1,18.4,7.2h163.2
			C791.7,1142.5,797.9,1140.1,803.5,1137.5z"/>
		<path id="XMLID_151_" fill="#FFFFFF" d="M822.6,1126.2H584.4c3,2.3,6.4,4.5,10,6.6h218.1C816.2,1130.7,819.6,1128.5,822.6,1126.2z
			"/>
		<path id="XMLID_150_" fill="#FFFFFF" d="M834.1,1115H572.9c1.5,2,3.3,4,5.3,6h250.5C830.8,1119,832.6,1117,834.1,1115z"/>
		<path id="XMLID_149_" fill="#FFFFFF" d="M840.1,1103.8H566.9c0.6,1.8,1.3,3.6,2.2,5.3h268.8
			C838.8,1107.4,839.5,1105.6,840.1,1103.8z"/>
		<path id="XMLID_148_" fill="#FFFFFF" d="M841.3,1095.4c0-1-0.1-1.9-0.2-2.9H565.8c-0.1,1-0.2,1.9-0.2,2.9c0,0.6,0,1.2,0.1,1.8
			h275.6C841.3,1096.7,841.3,1096,841.3,1095.4z"/>
	</g>
</g>
<linearGradient id="XMLID_8_" gradientUnits="userSpaceOnUse" x1="1112.7015" y1="849.9764" x2="1108.7015" y2="1069.9764">
	<stop  offset="0" style="stop-color:#FF7F8C"/>
	<stop  offset="0.6137" style="stop-color:#0F4565"/>
	<stop  offset="1" style="stop-color:#00364F"/>
</linearGradient>
<polygon id="XMLID_1481_" fill="url(#XMLID_8_)" points="1400,1138.7 814.9,1138.7 931,1089.5 1025,1097.3 1189,982.9 1304.5,1077 
	1340.4,1087 "/>
<linearGradient id="XMLID_9_" gradientUnits="userSpaceOnUse" x1="703.5" y1="707" x2="703.5" y2="1155.0178">
	<stop  offset="0" style="stop-color:#FF7F8C"/>
	<stop  offset="0.6137" style="stop-color:#0F4565"/>
	<stop  offset="1" style="stop-color:#00364F"/>
</linearGradient>
<polygon id="XMLID_1548_" fill="url(#XMLID_9_)" points="1407,985.1 1257,901.3 1069,947.3 857,937.2 717,965 453,851 331,917.3 
	241,912 0,994.5 "/>
<linearGradient id="XMLID_10_" gradientUnits="userSpaceOnUse" x1="445.9292" y1="897.0198" x2="423.9292" y2="1121.0198">
	<stop  offset="0" style="stop-color:#FF7F8C"/>
	<stop  offset="0.6137" style="stop-color:#0F4565"/>
	<stop  offset="1" style="stop-color:#00364F"/>
</linearGradient>
<path id="XMLID_1587_" fill="url(#XMLID_10_)" d="M619,1059.2c-10,0-378,0-378,0l136-50l53,25l51.9-14.1L537,1041L619,1059.2z"/>
<g id="XMLID_1652_">
	<g id="XMLID_1640_">
		
			<radialGradient id="XMLID_11_" cx="124.7902" cy="-7769.4751" r="96.557" gradientTransform="matrix(1 0 0 0.1023 0 928.3564)" gradientUnits="userSpaceOnUse">
			<stop  offset="0" style="stop-color:#FFFFFF"/>
			<stop  offset="7.226288e-003" style="stop-color:#FFFFFF;stop-opacity:0.9928"/>
			<stop  offset="1" style="stop-color:#FFFFFF;stop-opacity:0"/>
		</radialGradient>
		<ellipse id="XMLID_1647_" fill="url(#XMLID_11_)" cx="124.8" cy="133.3" rx="96.6" ry="9.9"/>
		
			<radialGradient id="XMLID_12_" cx="-2003.0576" cy="-6068.8672" r="96.557" gradientTransform="matrix(4.489659e-011 1 -0.1023 4.594586e-012 -496.2799 2136.3088)" gradientUnits="userSpaceOnUse">
			<stop  offset="0" style="stop-color:#FFFFFF"/>
			<stop  offset="7.226288e-003" style="stop-color:#FFFFFF;stop-opacity:0.9928"/>
			<stop  offset="1" style="stop-color:#FFFFFF;stop-opacity:0"/>
		</radialGradient>
		<ellipse id="XMLID_1646_" fill="url(#XMLID_12_)" cx="124.8" cy="133.3" rx="9.9" ry="96.6"/>
		<radialGradient id="XMLID_13_" cx="124.7902" cy="133.2511" r="52.3685" gradientUnits="userSpaceOnUse">
			<stop  offset="0" style="stop-color:#FFFFFF"/>
			<stop  offset="7.226288e-003" style="stop-color:#FFFFFF;stop-opacity:0.9928"/>
			<stop  offset="1" style="stop-color:#FFFFFF;stop-opacity:0"/>
		</radialGradient>
		<circle id="XMLID_1645_" fill="url(#XMLID_13_)" cx="124.8" cy="133.3" r="52.4"/>
		<g id="XMLID_1642_">
			
				<radialGradient id="XMLID_14_" cx="652.4995" cy="310.5643" r="62.633" gradientTransform="matrix(0.7071 -0.7071 2.748042e-002 2.748040e-002 -345.1311 586.1035)" gradientUnits="userSpaceOnUse">
				<stop  offset="0" style="stop-color:#FFFFFF"/>
				<stop  offset="7.226288e-003" style="stop-color:#FFFFFF;stop-opacity:0.9928"/>
				<stop  offset="1" style="stop-color:#FFFFFF;stop-opacity:0"/>
			</radialGradient>
			<path id="XMLID_1644_" fill="url(#XMLID_14_)" d="M169.1,89c1,1-18.1,21.5-42.6,46s-45.1,43.5-46,42.6c-1-1,18.1-21.5,42.6-46
				S168.1,88,169.1,89z"/>
			
				<radialGradient id="XMLID_15_" cx="-975.1778" cy="-22121.377" r="62.633" gradientTransform="matrix(0.7071 0.7071 -4.156201e-002 4.156199e-002 -105.0637 1742.2145)" gradientUnits="userSpaceOnUse">
				<stop  offset="0" style="stop-color:#FFFFFF"/>
				<stop  offset="7.226288e-003" style="stop-color:#FFFFFF;stop-opacity:0.9928"/>
				<stop  offset="1" style="stop-color:#FFFFFF;stop-opacity:0"/>
			</radialGradient>
			<path id="XMLID_1643_" fill="url(#XMLID_15_)" d="M169.1,177.5c-1.4,1.4-22.4-17.2-46.9-41.7S79.1,90.4,80.5,89
				c1.4-1.4,22.4,17.2,46.9,41.7S170.5,176.1,169.1,177.5z"/>
		</g>
		<radialGradient id="XMLID_16_" cx="124.7902" cy="133.2511" r="71.9537" gradientUnits="userSpaceOnUse">
			<stop  offset="0.6129" style="stop-color:#FFFFFF;stop-opacity:0"/>
			<stop  offset="0.7463" style="stop-color:#FFFFFF;stop-opacity:0.1986"/>
			<stop  offset="0.7473" style="stop-color:#FFFFFF;stop-opacity:0.2"/>
			<stop  offset="0.8333" style="stop-color:#FFFFFF;stop-opacity:0"/>
		</radialGradient>
		<circle id="XMLID_1641_" fill="url(#XMLID_16_)" cx="124.8" cy="133.3" r="72"/>
	</g>
	<g id="XMLID_1651_">
		<path id="XMLID_1658_" fill="#FFFFFF" d="M127.2,132c0,28.4-0.9,55.2-2.4,78.8c-1.5-23.6-2.4-50.4-2.4-78.8
			c0-28.4,0.9-55.2,2.4-78.8C126.3,76.8,127.2,103.6,127.2,132z"/>
		<path id="XMLID_1648_" fill="#FFFFFF" d="M124.8,134.4c-28.4,0-55.2-0.9-78.8-2.4c23.6-1.5,50.4-2.4,78.8-2.4
			c28.4,0,55.2,0.9,78.8,2.4C180,133.5,153.2,134.4,124.8,134.4z"/>
		<path id="XMLID_1650_" fill="#FFFFFF" d="M125.8,133c-12.4,12.4-24.4,23.6-35.3,33.2c9.6-10.9,20.9-23,33.2-35.3
			c12.3-12.3,24.4-23.6,35.3-33.2C149.5,108.7,138.2,120.7,125.8,133z"/>
		<path id="XMLID_1649_" fill="#FFFFFF" d="M123.8,133c-12.4-12.4-23.6-24.4-33.2-35.3c10.9,9.6,23,20.9,35.3,33.2
			c12.3,12.3,23.6,24.4,33.2,35.3C148.1,156.7,136.1,145.4,123.8,133z"/>
	</g>
</g>
<g id="XMLID_1682_">
	<g id="XMLID_1688_">
		
			<radialGradient id="XMLID_17_" cx="1204.1884" cy="-6019.6621" r="68.5871" gradientTransform="matrix(1 0 0 0.1023 0 928.3564)" gradientUnits="userSpaceOnUse">
			<stop  offset="0" style="stop-color:#FFFFFF"/>
			<stop  offset="7.226288e-003" style="stop-color:#FFFFFF;stop-opacity:0.9928"/>
			<stop  offset="1" style="stop-color:#FFFFFF;stop-opacity:0"/>
		</radialGradient>
		<ellipse id="XMLID_1695_" fill="url(#XMLID_17_)" cx="1204.2" cy="312.3" rx="68.6" ry="7"/>
		
			<radialGradient id="XMLID_18_" cx="-1823.9869" cy="-16616.3477" r="68.5871" gradientTransform="matrix(4.489659e-011 1 -0.1023 4.594586e-012 -496.2799 2136.3088)" gradientUnits="userSpaceOnUse">
			<stop  offset="0" style="stop-color:#FFFFFF"/>
			<stop  offset="7.226288e-003" style="stop-color:#FFFFFF;stop-opacity:0.9928"/>
			<stop  offset="1" style="stop-color:#FFFFFF;stop-opacity:0"/>
		</radialGradient>
		<ellipse id="XMLID_1694_" fill="url(#XMLID_18_)" cx="1204.2" cy="312.3" rx="7" ry="68.6"/>
		<radialGradient id="XMLID_19_" cx="1204.1884" cy="312.3218" r="37.1988" gradientUnits="userSpaceOnUse">
			<stop  offset="0" style="stop-color:#FFFFFF"/>
			<stop  offset="7.226288e-003" style="stop-color:#FFFFFF;stop-opacity:0.9928"/>
			<stop  offset="1" style="stop-color:#FFFFFF;stop-opacity:0"/>
		</radialGradient>
		<circle id="XMLID_1693_" fill="url(#XMLID_19_)" cx="1204.2" cy="312.3" r="37.2"/>
		<g id="XMLID_1690_">
			
				<radialGradient id="XMLID_20_" cx="1289.127" cy="23208.1289" r="44.4899" gradientTransform="matrix(0.7071 -0.7071 2.748042e-002 2.748040e-002 -345.1311 586.1035)" gradientUnits="userSpaceOnUse">
				<stop  offset="0" style="stop-color:#FFFFFF"/>
				<stop  offset="7.226288e-003" style="stop-color:#FFFFFF;stop-opacity:0.9928"/>
				<stop  offset="1" style="stop-color:#FFFFFF;stop-opacity:0"/>
			</radialGradient>
			<path id="XMLID_1692_" fill="url(#XMLID_20_)" d="M1235.6,280.9c0.7,0.7-12.9,15.3-30.2,32.7c-17.4,17.4-32,30.9-32.7,30.2
				c-0.7-0.7,12.9-15.3,30.2-32.7S1235,280.2,1235.6,280.9z"/>
			
				<radialGradient id="XMLID_21_" cx="-85.306" cy="-32952.5117" r="44.4899" gradientTransform="matrix(0.7071 0.7071 -4.156201e-002 4.156199e-002 -105.0637 1742.2145)" gradientUnits="userSpaceOnUse">
				<stop  offset="0" style="stop-color:#FFFFFF"/>
				<stop  offset="7.226288e-003" style="stop-color:#FFFFFF;stop-opacity:0.9928"/>
				<stop  offset="1" style="stop-color:#FFFFFF;stop-opacity:0"/>
			</radialGradient>
			<path id="XMLID_1691_" fill="url(#XMLID_21_)" d="M1235.6,343.8c-1,1-15.9-12.2-33.3-29.6c-17.4-17.4-30.6-32.3-29.6-33.3
				c1-1,15.9,12.2,33.3,29.6C1223.4,327.8,1236.7,342.8,1235.6,343.8z"/>
		</g>
		<radialGradient id="XMLID_22_" cx="1204.1884" cy="312.3218" r="51.1107" gradientUnits="userSpaceOnUse">
			<stop  offset="0.6129" style="stop-color:#FFFFFF;stop-opacity:0"/>
			<stop  offset="0.7463" style="stop-color:#FFFFFF;stop-opacity:0.1986"/>
			<stop  offset="0.7473" style="stop-color:#FFFFFF;stop-opacity:0.2"/>
			<stop  offset="0.8333" style="stop-color:#FFFFFF;stop-opacity:0"/>
		</radialGradient>
		<circle id="XMLID_1689_" fill="url(#XMLID_22_)" cx="1204.2" cy="312.3" r="51.1"/>
	</g>
	<g id="XMLID_1683_">
		<path id="XMLID_1687_" fill="#FFFFFF" d="M1205.9,311.4c0,20.2-0.6,39.2-1.7,56c-1.1-16.8-1.7-35.8-1.7-56c0-20.2,0.6-39.2,1.7-56
			C1205.3,272.2,1205.9,291.3,1205.9,311.4z"/>
		<path id="XMLID_1686_" fill="#FFFFFF" d="M1204.2,313.1c-20.2,0-39.2-0.6-56-1.7c16.8-1.1,35.8-1.7,56-1.7c20.2,0,39.2,0.6,56,1.7
			C1243.4,312.5,1224.4,313.1,1204.2,313.1z"/>
		<path id="XMLID_1685_" fill="#FFFFFF" d="M1204.9,312.2c-8.8,8.8-17.3,16.8-25.1,23.6c6.8-7.8,14.8-16.3,23.6-25.1
			c8.8-8.8,17.3-16.8,25.1-23.6C1221.7,294.9,1213.7,303.4,1204.9,312.2z"/>
		<path id="XMLID_1684_" fill="#FFFFFF" d="M1203.5,312.2c-8.8-8.8-16.8-17.3-23.6-25.1c7.8,6.8,16.3,14.8,25.1,23.6
			c8.8,8.8,16.8,17.3,23.6,25.1C1220.8,329,1212.2,320.9,1203.5,312.2z"/>
	</g>
</g>
<g id="XMLID_1735_">
	<g id="XMLID_1741_">
		
			<radialGradient id="XMLID_23_" cx="380.5715" cy="-4266.001" r="24.8162" gradientTransform="matrix(1 0 0 0.1023 0 928.3564)" gradientUnits="userSpaceOnUse">
			<stop  offset="0" style="stop-color:#FFFFFF"/>
			<stop  offset="7.226288e-003" style="stop-color:#FFFFFF;stop-opacity:0.9928"/>
			<stop  offset="1" style="stop-color:#FFFFFF;stop-opacity:0"/>
		</radialGradient>
		<ellipse id="XMLID_1748_" fill="url(#XMLID_23_)" cx="380.6" cy="491.8" rx="24.8" ry="2.5"/>
		
			<radialGradient id="XMLID_24_" cx="-1644.5225" cy="-8568.2686" r="24.8162" gradientTransform="matrix(4.489659e-011 1 -0.1023 4.594586e-012 -496.2799 2136.3088)" gradientUnits="userSpaceOnUse">
			<stop  offset="0" style="stop-color:#FFFFFF"/>
			<stop  offset="7.226288e-003" style="stop-color:#FFFFFF;stop-opacity:0.9928"/>
			<stop  offset="1" style="stop-color:#FFFFFF;stop-opacity:0"/>
		</radialGradient>
		<ellipse id="XMLID_1747_" fill="url(#XMLID_24_)" cx="380.6" cy="491.8" rx="2.5" ry="24.8"/>
		<radialGradient id="XMLID_25_" cx="380.5715" cy="491.7864" r="13.4593" gradientUnits="userSpaceOnUse">
			<stop  offset="0" style="stop-color:#FFFFFF"/>
			<stop  offset="7.226288e-003" style="stop-color:#FFFFFF;stop-opacity:0.9928"/>
			<stop  offset="1" style="stop-color:#FFFFFF;stop-opacity:0"/>
		</radialGradient>
		<circle id="XMLID_1746_" fill="url(#XMLID_25_)" cx="380.6" cy="491.8" r="13.5"/>
		<g id="XMLID_1743_">
			
				<radialGradient id="XMLID_26_" cx="579.8414" cy="11487.9199" r="16.0973" gradientTransform="matrix(0.7071 -0.7071 2.748042e-002 2.748040e-002 -345.1311 586.1035)" gradientUnits="userSpaceOnUse">
				<stop  offset="0" style="stop-color:#FFFFFF"/>
				<stop  offset="7.226288e-003" style="stop-color:#FFFFFF;stop-opacity:0.9928"/>
				<stop  offset="1" style="stop-color:#FFFFFF;stop-opacity:0"/>
			</radialGradient>
			<path id="XMLID_1745_" fill="url(#XMLID_26_)" d="M392,480.4c0.2,0.2-4.7,5.5-10.9,11.8s-11.6,11.2-11.8,10.9
				c-0.2-0.2,4.7-5.5,10.9-11.8C386.4,485.1,391.7,480.2,392,480.4z"/>
			
				<radialGradient id="XMLID_27_" cx="-540.7903" cy="-20885.2246" r="16.0973" gradientTransform="matrix(0.7071 0.7071 -4.156201e-002 4.156199e-002 -105.0637 1742.2145)" gradientUnits="userSpaceOnUse">
				<stop  offset="0" style="stop-color:#FFFFFF"/>
				<stop  offset="7.226288e-003" style="stop-color:#FFFFFF;stop-opacity:0.9928"/>
				<stop  offset="1" style="stop-color:#FFFFFF;stop-opacity:0"/>
			</radialGradient>
			<path id="XMLID_1744_" fill="url(#XMLID_27_)" d="M392,503.2c-0.4,0.4-5.8-4.4-12.1-10.7s-11.1-11.7-10.7-12.1
				c0.4-0.4,5.8,4.4,12.1,10.7S392.3,502.8,392,503.2z"/>
		</g>
		<radialGradient id="XMLID_28_" cx="380.5715" cy="491.7864" r="18.4929" gradientUnits="userSpaceOnUse">
			<stop  offset="0.6129" style="stop-color:#FFFFFF;stop-opacity:0"/>
			<stop  offset="0.7463" style="stop-color:#FFFFFF;stop-opacity:0.1986"/>
			<stop  offset="0.7473" style="stop-color:#FFFFFF;stop-opacity:0.2"/>
			<stop  offset="0.8333" style="stop-color:#FFFFFF;stop-opacity:0"/>
		</radialGradient>
		<circle id="XMLID_1742_" fill="url(#XMLID_28_)" cx="380.6" cy="491.8" r="18.5"/>
	</g>
	<g id="XMLID_1736_">
		<path id="XMLID_1740_" fill="#FFFFFF" d="M381.2,491.5c0,7.3-0.2,14.2-0.6,20.3c-0.4-6.1-0.6-13-0.6-20.3c0-7.3,0.2-14.2,0.6-20.3
			C381,477.3,381.2,484.2,381.2,491.5z"/>
		<path id="XMLID_1739_" fill="#FFFFFF" d="M380.6,492.1c-7.3,0-14.2-0.2-20.3-0.6c6.1-0.4,13-0.6,20.3-0.6c7.3,0,14.2,0.2,20.3,0.6
			C394.8,491.9,387.9,492.1,380.6,492.1z"/>
		<path id="XMLID_1738_" fill="#FFFFFF" d="M380.8,491.7c-3.2,3.2-6.3,6.1-9.1,8.5c2.5-2.8,5.4-5.9,8.5-9.1c3.2-3.2,6.3-6.1,9.1-8.5
			C386.9,485.5,384,488.6,380.8,491.7z"/>
		<path id="XMLID_1737_" fill="#FFFFFF" d="M380.3,491.7c-3.2-3.2-6.1-6.3-8.5-9.1c2.8,2.5,5.9,5.4,9.1,8.5c3.2,3.2,6.1,6.3,8.5,9.1
			C386.6,497.8,383.5,494.9,380.3,491.7z"/>
	</g>
</g>
<g id="XMLID_1827_">
	<g id="XMLID_1833_">
		
			<radialGradient id="XMLID_29_" cx="1188.3025" cy="-3103.853" r="19.4616" gradientTransform="matrix(1 0 0 0.1023 0 928.3564)" gradientUnits="userSpaceOnUse">
			<stop  offset="0" style="stop-color:#FFFFFF"/>
			<stop  offset="7.226288e-003" style="stop-color:#FFFFFF;stop-opacity:0.9928"/>
			<stop  offset="1" style="stop-color:#FFFFFF;stop-opacity:0"/>
		</radialGradient>
		<ellipse id="XMLID_1840_" fill="url(#XMLID_29_)" cx="1188.3" cy="610.7" rx="19.5" ry="2"/>
		
			<radialGradient id="XMLID_30_" cx="-1525.5916" cy="-16461.1172" r="19.4616" gradientTransform="matrix(4.489659e-011 1 -0.1023 4.594586e-012 -496.2799 2136.3088)" gradientUnits="userSpaceOnUse">
			<stop  offset="0" style="stop-color:#FFFFFF"/>
			<stop  offset="7.226288e-003" style="stop-color:#FFFFFF;stop-opacity:0.9928"/>
			<stop  offset="1" style="stop-color:#FFFFFF;stop-opacity:0"/>
		</radialGradient>
		<ellipse id="XMLID_1839_" fill="url(#XMLID_30_)" cx="1188.3" cy="610.7" rx="2" ry="19.5"/>
		<radialGradient id="XMLID_31_" cx="1188.3025" cy="610.7172" r="10.5552" gradientUnits="userSpaceOnUse">
			<stop  offset="0" style="stop-color:#FFFFFF"/>
			<stop  offset="7.226288e-003" style="stop-color:#FFFFFF;stop-opacity:0.9928"/>
			<stop  offset="1" style="stop-color:#FFFFFF;stop-opacity:0"/>
		</radialGradient>
		<circle id="XMLID_1838_" fill="url(#XMLID_31_)" cx="1188.3" cy="610.7" r="10.6"/>
		<g id="XMLID_1835_">
			
				<radialGradient id="XMLID_32_" cx="1066.8965" cy="28348.3262" r="12.624" gradientTransform="matrix(0.7071 -0.7071 2.748042e-002 2.748040e-002 -345.1311 586.1035)" gradientUnits="userSpaceOnUse">
				<stop  offset="0" style="stop-color:#FFFFFF"/>
				<stop  offset="7.226288e-003" style="stop-color:#FFFFFF;stop-opacity:0.9928"/>
				<stop  offset="1" style="stop-color:#FFFFFF;stop-opacity:0"/>
			</radialGradient>
			<path id="XMLID_1837_" fill="url(#XMLID_32_)" d="M1197.2,601.8c0.2,0.2-3.6,4.3-8.6,9.3c-4.9,4.9-9.1,8.8-9.3,8.6
				c-0.2-0.2,3.6-4.3,8.6-9.3C1192.9,605.4,1197,601.6,1197.2,601.8z"/>
			
				<radialGradient id="XMLID_33_" cx="114.4584" cy="-29171.6406" r="12.624" gradientTransform="matrix(0.7071 0.7071 -4.156201e-002 4.156199e-002 -105.0637 1742.2145)" gradientUnits="userSpaceOnUse">
				<stop  offset="0" style="stop-color:#FFFFFF"/>
				<stop  offset="7.226288e-003" style="stop-color:#FFFFFF;stop-opacity:0.9928"/>
				<stop  offset="1" style="stop-color:#FFFFFF;stop-opacity:0"/>
			</radialGradient>
			<path id="XMLID_1836_" fill="url(#XMLID_33_)" d="M1197.2,619.6c-0.3,0.3-4.5-3.5-9.5-8.4c-4.9-4.9-8.7-9.2-8.4-9.5
				c0.3-0.3,4.5,3.5,9.5,8.4C1193.8,615.1,1197.5,619.4,1197.2,619.6z"/>
		</g>
		<radialGradient id="XMLID_34_" cx="1188.3025" cy="610.7172" r="14.5027" gradientUnits="userSpaceOnUse">
			<stop  offset="0.6129" style="stop-color:#FFFFFF;stop-opacity:0"/>
			<stop  offset="0.7463" style="stop-color:#FFFFFF;stop-opacity:0.1986"/>
			<stop  offset="0.7473" style="stop-color:#FFFFFF;stop-opacity:0.2"/>
			<stop  offset="0.8333" style="stop-color:#FFFFFF;stop-opacity:0"/>
		</radialGradient>
		<circle id="XMLID_1834_" fill="url(#XMLID_34_)" cx="1188.3" cy="610.7" r="14.5"/>
	</g>
	<g id="XMLID_1828_">
		<path id="XMLID_1832_" fill="#FFFFFF" d="M1188.8,610.5c0,5.7-0.2,11.1-0.5,15.9c-0.3-4.8-0.5-10.2-0.5-15.9
			c0-5.7,0.2-11.1,0.5-15.9C1188.6,599.3,1188.8,604.7,1188.8,610.5z"/>
		<path id="XMLID_1831_" fill="#FFFFFF" d="M1188.3,610.9c-5.7,0-11.1-0.2-15.9-0.5c4.8-0.3,10.2-0.5,15.9-0.5
			c5.7,0,11.1,0.2,15.9,0.5C1199.4,610.8,1194,610.9,1188.3,610.9z"/>
		<path id="XMLID_1830_" fill="#FFFFFF" d="M1188.5,610.7c-2.5,2.5-4.9,4.8-7.1,6.7c1.9-2.2,4.2-4.6,6.7-7.1
			c2.5-2.5,4.9-4.8,7.1-6.7C1193.3,605.8,1191,608.2,1188.5,610.7z"/>
		<path id="XMLID_1829_" fill="#FFFFFF" d="M1188.1,610.7c-2.5-2.5-4.8-4.9-6.7-7.1c2.2,1.9,4.6,4.2,7.1,6.7
			c2.5,2.5,4.8,4.9,6.7,7.1C1193,615.4,1190.6,613.2,1188.1,610.7z"/>
	</g>
</g>
<g id="XMLID_1972_">
	<g id="XMLID_1978_">
		
			<radialGradient id="XMLID_35_" cx="109.5579" cy="-2419.9019" r="14.1108" gradientTransform="matrix(1 0 0 0.1023 0 928.3564)" gradientUnits="userSpaceOnUse">
			<stop  offset="0" style="stop-color:#FFFFFF"/>
			<stop  offset="7.226288e-003" style="stop-color:#FFFFFF;stop-opacity:0.9928"/>
			<stop  offset="1" style="stop-color:#FFFFFF;stop-opacity:0"/>
		</radialGradient>
		<ellipse id="XMLID_1985_" fill="url(#XMLID_35_)" cx="109.6" cy="680.7" rx="14.1" ry="1.4"/>
		
			<radialGradient id="XMLID_36_" cx="-1455.598" cy="-5920.0234" r="14.1108" gradientTransform="matrix(4.489659e-011 1 -0.1023 4.594586e-012 -496.2799 2136.3088)" gradientUnits="userSpaceOnUse">
			<stop  offset="0" style="stop-color:#FFFFFF"/>
			<stop  offset="7.226288e-003" style="stop-color:#FFFFFF;stop-opacity:0.9928"/>
			<stop  offset="1" style="stop-color:#FFFFFF;stop-opacity:0"/>
		</radialGradient>
		<ellipse id="XMLID_1984_" fill="url(#XMLID_36_)" cx="109.6" cy="680.7" rx="1.4" ry="14.1"/>
		<radialGradient id="XMLID_37_" cx="109.5579" cy="680.7108" r="7.6531" gradientUnits="userSpaceOnUse">
			<stop  offset="0" style="stop-color:#FFFFFF"/>
			<stop  offset="7.226288e-003" style="stop-color:#FFFFFF;stop-opacity:0.9928"/>
			<stop  offset="1" style="stop-color:#FFFFFF;stop-opacity:0"/>
		</radialGradient>
		<circle id="XMLID_1983_" fill="url(#XMLID_37_)" cx="109.6" cy="680.7" r="7.7"/>
		<g id="XMLID_1980_">
			
				<radialGradient id="XMLID_38_" cx="254.6162" cy="9994.3252" r="9.1531" gradientTransform="matrix(0.7071 -0.7071 2.748042e-002 2.748040e-002 -345.1311 586.1035)" gradientUnits="userSpaceOnUse">
				<stop  offset="0" style="stop-color:#FFFFFF"/>
				<stop  offset="7.226288e-003" style="stop-color:#FFFFFF;stop-opacity:0.9928"/>
				<stop  offset="1" style="stop-color:#FFFFFF;stop-opacity:0"/>
			</radialGradient>
			<path id="XMLID_1982_" fill="url(#XMLID_38_)" d="M116,674.2c0.1,0.1-2.6,3.1-6.2,6.7c-3.6,3.6-6.6,6.4-6.7,6.2s2.6-3.1,6.2-6.7
				C112.9,676.9,115.9,674.1,116,674.2z"/>
			
				<radialGradient id="XMLID_39_" cx="-598.8362" cy="-15352.0693" r="9.1531" gradientTransform="matrix(0.7071 0.7071 -4.156201e-002 4.156199e-002 -105.0637 1742.2145)" gradientUnits="userSpaceOnUse">
				<stop  offset="0" style="stop-color:#FFFFFF"/>
				<stop  offset="7.226288e-003" style="stop-color:#FFFFFF;stop-opacity:0.9928"/>
				<stop  offset="1" style="stop-color:#FFFFFF;stop-opacity:0"/>
			</radialGradient>
			<path id="XMLID_1981_" fill="url(#XMLID_39_)" d="M116,687.2c-0.2,0.2-3.3-2.5-6.9-6.1c-3.6-3.6-6.3-6.6-6.1-6.9
				c0.2-0.2,3.3,2.5,6.9,6.1C113.5,683.9,116.2,687,116,687.2z"/>
		</g>
		<radialGradient id="XMLID_40_" cx="109.5579" cy="680.7108" r="10.5153" gradientUnits="userSpaceOnUse">
			<stop  offset="0.6129" style="stop-color:#FFFFFF;stop-opacity:0"/>
			<stop  offset="0.7463" style="stop-color:#FFFFFF;stop-opacity:0.1986"/>
			<stop  offset="0.7473" style="stop-color:#FFFFFF;stop-opacity:0.2"/>
			<stop  offset="0.8333" style="stop-color:#FFFFFF;stop-opacity:0"/>
		</radialGradient>
		<circle id="XMLID_1979_" fill="url(#XMLID_40_)" cx="109.6" cy="680.7" r="10.5"/>
	</g>
	<g id="XMLID_1973_">
		<path id="XMLID_1977_" fill="#FFFFFF" d="M109.9,680.5c0,4.2-0.1,8.1-0.3,11.5c-0.2-3.5-0.3-7.4-0.3-11.5c0-4.1,0.1-8.1,0.3-11.5
			C109.8,672.5,109.9,676.4,109.9,680.5z"/>
		<path id="XMLID_1976_" fill="#FFFFFF" d="M109.6,680.9c-4.2,0-8.1-0.1-11.5-0.3c3.5-0.2,7.4-0.3,11.5-0.3c4.1,0,8.1,0.1,11.5,0.3
			C117.6,680.7,113.7,680.9,109.6,680.9z"/>
		<path id="XMLID_1975_" fill="#FFFFFF" d="M109.7,680.7c-1.8,1.8-3.6,3.5-5.2,4.9c1.4-1.6,3.1-3.4,4.9-5.2c1.8-1.8,3.6-3.5,5.2-4.9
			C113.2,677.1,111.5,678.9,109.7,680.7z"/>
		<path id="XMLID_1974_" fill="#FFFFFF" d="M109.4,680.7c-1.8-1.8-3.5-3.6-4.9-5.2c1.6,1.4,3.4,3.1,5.2,4.9c1.8,1.8,3.5,3.6,4.9,5.2
			C113,684.1,111.2,682.5,109.4,680.7z"/>
	</g>
</g>
<g id="XMLID_1999_">
	<g id="XMLID_2005_">
		
			<radialGradient id="XMLID_41_" cx="462.5177" cy="-4726.9067" r="14.1108" gradientTransform="matrix(1 0 0 0.1023 0 928.3564)" gradientUnits="userSpaceOnUse">
			<stop  offset="0" style="stop-color:#FFFFFF"/>
			<stop  offset="7.226288e-003" style="stop-color:#FFFFFF;stop-opacity:0.9928"/>
			<stop  offset="1" style="stop-color:#FFFFFF;stop-opacity:0"/>
		</radialGradient>
		<ellipse id="XMLID_2012_" fill="url(#XMLID_41_)" cx="462.5" cy="444.6" rx="14.1" ry="1.4"/>
		
			<radialGradient id="XMLID_42_" cx="-1691.6902" cy="-9369.0166" r="14.1108" gradientTransform="matrix(4.489659e-011 1 -0.1023 4.594586e-012 -496.2799 2136.3088)" gradientUnits="userSpaceOnUse">
			<stop  offset="0" style="stop-color:#FFFFFF"/>
			<stop  offset="7.226288e-003" style="stop-color:#FFFFFF;stop-opacity:0.9928"/>
			<stop  offset="1" style="stop-color:#FFFFFF;stop-opacity:0"/>
		</radialGradient>
		<ellipse id="XMLID_2011_" fill="url(#XMLID_42_)" cx="462.5" cy="444.6" rx="1.4" ry="14.1"/>
		<radialGradient id="XMLID_43_" cx="462.5177" cy="444.6186" r="7.6531" gradientUnits="userSpaceOnUse">
			<stop  offset="0" style="stop-color:#FFFFFF"/>
			<stop  offset="7.226288e-003" style="stop-color:#FFFFFF;stop-opacity:0.9928"/>
			<stop  offset="1" style="stop-color:#FFFFFF;stop-opacity:0"/>
		</radialGradient>
		<circle id="XMLID_2010_" fill="url(#XMLID_43_)" cx="462.5" cy="444.6" r="7.7"/>
		<g id="XMLID_2007_">
			
				<radialGradient id="XMLID_44_" cx="671.1387" cy="12120.707" r="9.1531" gradientTransform="matrix(0.7071 -0.7071 2.748042e-002 2.748040e-002 -345.1311 586.1035)" gradientUnits="userSpaceOnUse">
				<stop  offset="0" style="stop-color:#FFFFFF"/>
				<stop  offset="7.226288e-003" style="stop-color:#FFFFFF;stop-opacity:0.9928"/>
				<stop  offset="1" style="stop-color:#FFFFFF;stop-opacity:0"/>
			</radialGradient>
			<path id="XMLID_2009_" fill="url(#XMLID_44_)" d="M469,438.1c0.1,0.1-2.6,3.1-6.2,6.7c-3.6,3.6-6.6,6.4-6.7,6.2s2.6-3.1,6.2-6.7
				S468.9,438,469,438.1z"/>
			
				<radialGradient id="XMLID_45_" cx="-516.1983" cy="-22438.4941" r="9.1531" gradientTransform="matrix(0.7071 0.7071 -4.156201e-002 4.156199e-002 -105.0637 1742.2145)" gradientUnits="userSpaceOnUse">
				<stop  offset="0" style="stop-color:#FFFFFF"/>
				<stop  offset="7.226288e-003" style="stop-color:#FFFFFF;stop-opacity:0.9928"/>
				<stop  offset="1" style="stop-color:#FFFFFF;stop-opacity:0"/>
			</radialGradient>
			<path id="XMLID_2008_" fill="url(#XMLID_45_)" d="M469,451.1c-0.2,0.2-3.3-2.5-6.9-6.1s-6.3-6.6-6.1-6.9s3.3,2.5,6.9,6.1
				S469.2,450.9,469,451.1z"/>
		</g>
		<radialGradient id="XMLID_46_" cx="462.5177" cy="444.6186" r="10.5153" gradientUnits="userSpaceOnUse">
			<stop  offset="0.6129" style="stop-color:#FFFFFF;stop-opacity:0"/>
			<stop  offset="0.7463" style="stop-color:#FFFFFF;stop-opacity:0.1986"/>
			<stop  offset="0.7473" style="stop-color:#FFFFFF;stop-opacity:0.2"/>
			<stop  offset="0.8333" style="stop-color:#FFFFFF;stop-opacity:0"/>
		</radialGradient>
		<circle id="XMLID_2006_" fill="url(#XMLID_46_)" cx="462.5" cy="444.6" r="10.5"/>
	</g>
	<g id="XMLID_2000_">
		<path id="XMLID_2004_" fill="#FFFFFF" d="M462.9,444.4c0,4.2-0.1,8.1-0.3,11.5c-0.2-3.5-0.3-7.4-0.3-11.5c0-4.1,0.1-8.1,0.3-11.5
			C462.7,436.4,462.9,440.3,462.9,444.4z"/>
		<path id="XMLID_2003_" fill="#FFFFFF" d="M462.5,444.8c-4.2,0-8.1-0.1-11.5-0.3c3.5-0.2,7.4-0.3,11.5-0.3c4.1,0,8.1,0.1,11.5,0.3
			C470.6,444.7,466.7,444.8,462.5,444.8z"/>
		<path id="XMLID_2002_" fill="#FFFFFF" d="M462.7,444.6c-1.8,1.8-3.6,3.5-5.2,4.9c1.4-1.6,3.1-3.4,4.9-5.2c1.8-1.8,3.6-3.5,5.2-4.9
			C466.1,441,464.5,442.8,462.7,444.6z"/>
		<path id="XMLID_2001_" fill="#FFFFFF" d="M462.4,444.6c-1.8-1.8-3.5-3.6-4.9-5.2c1.6,1.4,3.4,3.1,5.2,4.9c1.8,1.8,3.5,3.6,4.9,5.2
			C465.9,448,464.2,446.4,462.4,444.6z"/>
	</g>
</g>
<g id="XMLID_2026_">
	<g id="XMLID_2032_">
		
			<radialGradient id="XMLID_47_" cx="954.8523" cy="-3576.627" r="14.1108" gradientTransform="matrix(1 0 0 0.1023 0 928.3564)" gradientUnits="userSpaceOnUse">
			<stop  offset="0" style="stop-color:#FFFFFF"/>
			<stop  offset="7.226288e-003" style="stop-color:#FFFFFF;stop-opacity:0.9928"/>
			<stop  offset="1" style="stop-color:#FFFFFF;stop-opacity:0"/>
		</radialGradient>
		<ellipse id="XMLID_2039_" fill="url(#XMLID_47_)" cx="954.9" cy="562.3" rx="14.1" ry="1.4"/>
		
			<radialGradient id="XMLID_48_" cx="-1573.9739" cy="-14179.9277" r="14.1108" gradientTransform="matrix(4.489659e-011 1 -0.1023 4.594586e-012 -496.2799 2136.3088)" gradientUnits="userSpaceOnUse">
			<stop  offset="0" style="stop-color:#FFFFFF"/>
			<stop  offset="7.226288e-003" style="stop-color:#FFFFFF;stop-opacity:0.9928"/>
			<stop  offset="1" style="stop-color:#FFFFFF;stop-opacity:0"/>
		</radialGradient>
		<ellipse id="XMLID_2038_" fill="url(#XMLID_48_)" cx="954.9" cy="562.3" rx="1.4" ry="14.1"/>
		<radialGradient id="XMLID_49_" cx="954.8523" cy="562.3349" r="7.6531" gradientUnits="userSpaceOnUse">
			<stop  offset="0" style="stop-color:#FFFFFF"/>
			<stop  offset="7.226288e-003" style="stop-color:#FFFFFF;stop-opacity:0.9928"/>
			<stop  offset="1" style="stop-color:#FFFFFF;stop-opacity:0"/>
		</radialGradient>
		<circle id="XMLID_2037_" fill="url(#XMLID_49_)" cx="954.9" cy="562.3" r="7.7"/>
		<g id="XMLID_2034_">
			
				<radialGradient id="XMLID_50_" cx="936.0338" cy="23220.4473" r="9.1531" gradientTransform="matrix(0.7071 -0.7071 2.748042e-002 2.748040e-002 -345.1311 586.1035)" gradientUnits="userSpaceOnUse">
				<stop  offset="0" style="stop-color:#FFFFFF"/>
				<stop  offset="7.226288e-003" style="stop-color:#FFFFFF;stop-opacity:0.9928"/>
				<stop  offset="1" style="stop-color:#FFFFFF;stop-opacity:0"/>
			</radialGradient>
			<path id="XMLID_2036_" fill="url(#XMLID_50_)" d="M961.3,555.9c0.1,0.1-2.6,3.1-6.2,6.7s-6.6,6.4-6.7,6.2s2.6-3.1,6.2-6.7
				C958.2,558.5,961.2,555.7,961.3,555.9z"/>
			
				<radialGradient id="XMLID_51_" cx="-84.8272" cy="-26945.2344" r="9.1531" gradientTransform="matrix(0.7071 0.7071 -4.156201e-002 4.156199e-002 -105.0637 1742.2145)" gradientUnits="userSpaceOnUse">
				<stop  offset="0" style="stop-color:#FFFFFF"/>
				<stop  offset="7.226288e-003" style="stop-color:#FFFFFF;stop-opacity:0.9928"/>
				<stop  offset="1" style="stop-color:#FFFFFF;stop-opacity:0"/>
			</radialGradient>
			<path id="XMLID_2035_" fill="url(#XMLID_51_)" d="M961.3,568.8c-0.2,0.2-3.3-2.5-6.9-6.1s-6.3-6.6-6.1-6.9
				c0.2-0.2,3.3,2.5,6.9,6.1S961.5,568.6,961.3,568.8z"/>
		</g>
		<radialGradient id="XMLID_52_" cx="954.8523" cy="562.3349" r="10.5153" gradientUnits="userSpaceOnUse">
			<stop  offset="0.6129" style="stop-color:#FFFFFF;stop-opacity:0"/>
			<stop  offset="0.7463" style="stop-color:#FFFFFF;stop-opacity:0.1986"/>
			<stop  offset="0.7473" style="stop-color:#FFFFFF;stop-opacity:0.2"/>
			<stop  offset="0.8333" style="stop-color:#FFFFFF;stop-opacity:0"/>
		</radialGradient>
		<circle id="XMLID_2033_" fill="url(#XMLID_52_)" cx="954.9" cy="562.3" r="10.5"/>
	</g>
	<g id="XMLID_2027_">
		<path id="XMLID_2031_" fill="#FFFFFF" d="M955.2,562.2c0,4.2-0.1,8.1-0.3,11.5c-0.2-3.5-0.3-7.4-0.3-11.5c0-4.1,0.1-8.1,0.3-11.5
			C955.1,554.1,955.2,558,955.2,562.2z"/>
		<path id="XMLID_2030_" fill="#FFFFFF" d="M954.9,562.5c-4.2,0-8.1-0.1-11.5-0.3c3.5-0.2,7.4-0.3,11.5-0.3c4.1,0,8.1,0.1,11.5,0.3
			C962.9,562.4,959,562.5,954.9,562.5z"/>
		<path id="XMLID_2029_" fill="#FFFFFF" d="M955,562.3c-1.8,1.8-3.6,3.5-5.2,4.9c1.4-1.6,3.1-3.4,4.9-5.2c1.8-1.8,3.6-3.5,5.2-4.9
			C958.5,558.7,956.8,560.5,955,562.3z"/>
		<path id="XMLID_2028_" fill="#FFFFFF" d="M954.7,562.3c-1.8-1.8-3.5-3.6-4.9-5.2c1.6,1.4,3.4,3.1,5.2,4.9c1.8,1.8,3.5,3.6,4.9,5.2
			C958.3,565.8,956.5,564.1,954.7,562.3z"/>
	</g>
</g>
<g id="XMLID_2053_">
	<g id="XMLID_2059_">
		
			<radialGradient id="XMLID_53_" cx="1093.3407" cy="-8041.9521" r="25.2926" gradientTransform="matrix(1 0 0 0.1023 0 928.3564)" gradientUnits="userSpaceOnUse">
			<stop  offset="0" style="stop-color:#FFFFFF"/>
			<stop  offset="7.226288e-003" style="stop-color:#FFFFFF;stop-opacity:0.9928"/>
			<stop  offset="1" style="stop-color:#FFFFFF;stop-opacity:0"/>
		</radialGradient>
		<ellipse id="XMLID_2066_" fill="url(#XMLID_53_)" cx="1093.3" cy="105.4" rx="25.3" ry="2.6"/>
		
			<radialGradient id="XMLID_54_" cx="-2030.9423" cy="-15533.1855" r="25.2926" gradientTransform="matrix(4.489659e-011 1 -0.1023 4.594586e-012 -496.2799 2136.3088)" gradientUnits="userSpaceOnUse">
			<stop  offset="0" style="stop-color:#FFFFFF"/>
			<stop  offset="7.226288e-003" style="stop-color:#FFFFFF;stop-opacity:0.9928"/>
			<stop  offset="1" style="stop-color:#FFFFFF;stop-opacity:0"/>
		</radialGradient>
		<ellipse id="XMLID_2065_" fill="url(#XMLID_54_)" cx="1093.3" cy="105.4" rx="2.6" ry="25.3"/>
		<radialGradient id="XMLID_55_" cx="1093.3407" cy="105.3666" r="13.7176" gradientUnits="userSpaceOnUse">
			<stop  offset="0" style="stop-color:#FFFFFF"/>
			<stop  offset="7.226288e-003" style="stop-color:#FFFFFF;stop-opacity:0.9928"/>
			<stop  offset="1" style="stop-color:#FFFFFF;stop-opacity:0"/>
		</radialGradient>
		<circle id="XMLID_2064_" fill="url(#XMLID_55_)" cx="1093.3" cy="105.4" r="13.7"/>
		<g id="XMLID_2061_">
			
				<radialGradient id="XMLID_56_" cx="1357.0853" cy="17425.7734" r="16.4064" gradientTransform="matrix(0.7071 -0.7071 2.748042e-002 2.748040e-002 -345.1311 586.1035)" gradientUnits="userSpaceOnUse">
				<stop  offset="0" style="stop-color:#FFFFFF"/>
				<stop  offset="7.226288e-003" style="stop-color:#FFFFFF;stop-opacity:0.9928"/>
				<stop  offset="1" style="stop-color:#FFFFFF;stop-opacity:0"/>
			</radialGradient>
			<path id="XMLID_2063_" fill="url(#XMLID_56_)" d="M1104.9,93.8c0.2,0.2-4.7,5.6-11.2,12.1s-11.8,11.4-12.1,11.2
				c-0.2-0.2,4.7-5.6,11.2-12.1C1099.3,98.5,1104.7,93.5,1104.9,93.8z"/>
			
				<radialGradient id="XMLID_57_" cx="-310.0266" cy="-34108.707" r="16.4064" gradientTransform="matrix(0.7071 0.7071 -4.156201e-002 4.156199e-002 -105.0637 1742.2145)" gradientUnits="userSpaceOnUse">
				<stop  offset="0" style="stop-color:#FFFFFF"/>
				<stop  offset="7.226288e-003" style="stop-color:#FFFFFF;stop-opacity:0.9928"/>
				<stop  offset="1" style="stop-color:#FFFFFF;stop-opacity:0"/>
			</radialGradient>
			<path id="XMLID_2062_" fill="url(#XMLID_57_)" d="M1104.9,117c-0.4,0.4-5.9-4.5-12.3-10.9c-6.4-6.4-11.3-11.9-10.9-12.3
				s5.9,4.5,12.3,10.9S1105.3,116.6,1104.9,117z"/>
		</g>
		<radialGradient id="XMLID_58_" cx="1093.3407" cy="105.3666" r="18.8479" gradientUnits="userSpaceOnUse">
			<stop  offset="0.6129" style="stop-color:#FFFFFF;stop-opacity:0"/>
			<stop  offset="0.7463" style="stop-color:#FFFFFF;stop-opacity:0.1986"/>
			<stop  offset="0.7473" style="stop-color:#FFFFFF;stop-opacity:0.2"/>
			<stop  offset="0.8333" style="stop-color:#FFFFFF;stop-opacity:0"/>
		</radialGradient>
		<circle id="XMLID_2060_" fill="url(#XMLID_58_)" cx="1093.3" cy="105.4" r="18.8"/>
	</g>
	<g id="XMLID_2054_">
		<path id="XMLID_2058_" fill="#FFFFFF" d="M1094,105c0,7.4-0.2,14.5-0.6,20.6c-0.4-6.2-0.6-13.2-0.6-20.6c0-7.4,0.2-14.5,0.6-20.6
			C1093.7,90.6,1094,97.6,1094,105z"/>
		<path id="XMLID_2057_" fill="#FFFFFF" d="M1093.3,105.7c-7.4,0-14.5-0.2-20.6-0.6c6.2-0.4,13.2-0.6,20.6-0.6
			c7.4,0,14.5,0.2,20.6,0.6C1107.8,105.4,1100.8,105.7,1093.3,105.7z"/>
		<path id="XMLID_2056_" fill="#FFFFFF" d="M1093.6,105.3c-3.2,3.2-6.4,6.2-9.2,8.7c2.5-2.9,5.5-6,8.7-9.2c3.2-3.2,6.4-6.2,9.2-8.7
			C1099.8,98.9,1096.8,102.1,1093.6,105.3z"/>
		<path id="XMLID_2055_" fill="#FFFFFF" d="M1093.1,105.3c-3.2-3.2-6.2-6.4-8.7-9.2c2.9,2.5,6,5.5,9.2,8.7c3.2,3.2,6.2,6.4,8.7,9.2
			C1099.5,111.5,1096.3,108.5,1093.1,105.3z"/>
	</g>
</g>
<g id="XMLID_1867_">
	<g id="XMLID_1873_">
		
			<radialGradient id="XMLID_59_" cx="791.6951" cy="-6294.4805" r="19.4616" gradientTransform="matrix(1 0 0 0.1023 0 928.3564)" gradientUnits="userSpaceOnUse">
			<stop  offset="0" style="stop-color:#FFFFFF"/>
			<stop  offset="7.226288e-003" style="stop-color:#FFFFFF;stop-opacity:0.9928"/>
			<stop  offset="1" style="stop-color:#FFFFFF;stop-opacity:0"/>
		</radialGradient>
		<ellipse id="XMLID_1880_" fill="url(#XMLID_59_)" cx="791.7" cy="284.2" rx="19.5" ry="2"/>
		
			<radialGradient id="XMLID_60_" cx="-1852.1111" cy="-12585.6162" r="19.4616" gradientTransform="matrix(4.489659e-011 1 -0.1023 4.594586e-012 -496.2799 2136.3088)" gradientUnits="userSpaceOnUse">
			<stop  offset="0" style="stop-color:#FFFFFF"/>
			<stop  offset="7.226288e-003" style="stop-color:#FFFFFF;stop-opacity:0.9928"/>
			<stop  offset="1" style="stop-color:#FFFFFF;stop-opacity:0"/>
		</radialGradient>
		<ellipse id="XMLID_1879_" fill="url(#XMLID_60_)" cx="791.7" cy="284.2" rx="2" ry="19.5"/>
		<radialGradient id="XMLID_61_" cx="791.6951" cy="284.1977" r="10.5552" gradientUnits="userSpaceOnUse">
			<stop  offset="0" style="stop-color:#FFFFFF"/>
			<stop  offset="7.226288e-003" style="stop-color:#FFFFFF;stop-opacity:0.9928"/>
			<stop  offset="1" style="stop-color:#FFFFFF;stop-opacity:0"/>
		</radialGradient>
		<circle id="XMLID_1878_" fill="url(#XMLID_61_)" cx="791.7" cy="284.2" r="10.6"/>
		<g id="XMLID_1875_">
			
				<radialGradient id="XMLID_62_" cx="1017.337" cy="15191.1924" r="12.624" gradientTransform="matrix(0.7071 -0.7071 2.748042e-002 2.748040e-002 -345.1311 586.1035)" gradientUnits="userSpaceOnUse">
				<stop  offset="0" style="stop-color:#FFFFFF"/>
				<stop  offset="7.226288e-003" style="stop-color:#FFFFFF;stop-opacity:0.9928"/>
				<stop  offset="1" style="stop-color:#FFFFFF;stop-opacity:0"/>
			</radialGradient>
			<path id="XMLID_1877_" fill="url(#XMLID_62_)" d="M800.6,275.3c0.2,0.2-3.6,4.3-8.6,9.3s-9.1,8.8-9.3,8.6
				c-0.2-0.2,3.6-4.3,8.6-9.3S800.4,275.1,800.6,275.3z"/>
			
				<radialGradient id="XMLID_63_" cx="-396.8695" cy="-28328.4688" r="12.624" gradientTransform="matrix(0.7071 0.7071 -4.156201e-002 4.156199e-002 -105.0637 1742.2145)" gradientUnits="userSpaceOnUse">
				<stop  offset="0" style="stop-color:#FFFFFF"/>
				<stop  offset="7.226288e-003" style="stop-color:#FFFFFF;stop-opacity:0.9928"/>
				<stop  offset="1" style="stop-color:#FFFFFF;stop-opacity:0"/>
			</radialGradient>
			<path id="XMLID_1876_" fill="url(#XMLID_63_)" d="M800.6,293.1c-0.3,0.3-4.5-3.5-9.5-8.4s-8.7-9.2-8.4-9.5
				c0.3-0.3,4.5,3.5,9.5,8.4C797.1,288.6,800.9,292.8,800.6,293.1z"/>
		</g>
		<radialGradient id="XMLID_64_" cx="791.6951" cy="284.1977" r="14.5027" gradientUnits="userSpaceOnUse">
			<stop  offset="0.6129" style="stop-color:#FFFFFF;stop-opacity:0"/>
			<stop  offset="0.7463" style="stop-color:#FFFFFF;stop-opacity:0.1986"/>
			<stop  offset="0.7473" style="stop-color:#FFFFFF;stop-opacity:0.2"/>
			<stop  offset="0.8333" style="stop-color:#FFFFFF;stop-opacity:0"/>
		</radialGradient>
		<circle id="XMLID_1874_" fill="url(#XMLID_64_)" cx="791.7" cy="284.2" r="14.5"/>
	</g>
	<g id="XMLID_1868_">
		<path id="XMLID_1872_" fill="#FFFFFF" d="M792.2,283.9c0,5.7-0.2,11.1-0.5,15.9c-0.3-4.8-0.5-10.2-0.5-15.9
			c0-5.7,0.2-11.1,0.5-15.9C792,272.8,792.2,278.2,792.2,283.9z"/>
		<path id="XMLID_1871_" fill="#FFFFFF" d="M791.7,284.4c-5.7,0-11.1-0.2-15.9-0.5c4.8-0.3,10.2-0.5,15.9-0.5
			c5.7,0,11.1,0.2,15.9,0.5C802.8,284.3,797.4,284.4,791.7,284.4z"/>
		<path id="XMLID_1870_" fill="#FFFFFF" d="M791.9,284.2c-2.5,2.5-4.9,4.8-7.1,6.7c1.9-2.2,4.2-4.6,6.7-7.1c2.5-2.5,4.9-4.8,7.1-6.7
			C796.7,279.2,794.4,281.7,791.9,284.2z"/>
		<path id="XMLID_1869_" fill="#FFFFFF" d="M791.5,284.2c-2.5-2.5-4.8-4.9-6.7-7.1c2.2,1.9,4.6,4.2,7.1,6.7c2.5,2.5,4.8,4.9,6.7,7.1
			C796.4,288.9,794,286.6,791.5,284.2z"/>
	</g>
</g>
<g id="XMLID_823_">
	<defs>
		<rect id="XMLID_822_" y="1095.5" width="584.4" height="186.9"/>
	</defs>
	<clipPath id="XMLID_65_">
		<use xlink:href="#XMLID_822_"  overflow="visible"/>
	</clipPath>
	<linearGradient id="XMLID_66_" gradientUnits="userSpaceOnUse" x1="322.8384" y1="902.8024" x2="246.8384" y2="1176.8024">
		<stop  offset="0" style="stop-color:#FF7F8C"/>
		<stop  offset="0.6137" style="stop-color:#0F4565"/>
		<stop  offset="1" style="stop-color:#00364F"/>
	</linearGradient>
	<path id="XMLID_145_" clip-path="url(#XMLID_65_)" fill="url(#XMLID_66_)" d="M585.1,1271.1c-12-10.1-200.8-103.1-200.8-103.1
		l-134,13.8l-120-70.7l-274,160.1H585.1z"/>
</g>
</svg>
